<?xml version="1.0" encoding="utf-8"?>
<!-- Generator: Adobe Illustrator 19.1.0, SVG Export Plug-In . SVG Version: 6.00 Build 0)  -->
<!DOCTYPE svg PUBLIC "-//W3C//DTD SVG 1.1//EN" "http://www.w3.org/Graphics/SVG/1.1/DTD/svg11.dtd">
<svg version="1.1" id="Layer_1" xmlns="http://www.w3.org/2000/svg" xmlns:xlink="http://www.w3.org/1999/xlink" x="0px" y="0px"
	 viewBox="0 0 152.3 131.7" style="enable-background:new 0 0 152.3 131.7;" xml:space="preserve">
<style type="text/css">
	.st0{fill-rule:evenodd;clip-rule:evenodd;fill:#FFFFFF;}
</style>
<path class="st0" d="M142.8,85.4h-9.5v9.5c0,5.2-4.3,9.5-9.5,9.5c-5.2,0-9.5-4.3-9.5-9.5v-9.5h-9.5c-5.2,0-9.5-4.3-9.5-9.5
	c0-5.2,4.3-9.5,9.5-9.5h9.5v-9.5c0-5.2,4.3-9.5,9.5-9.5c5.2,0,9.5,4.3,9.5,9.5v9.5h9.5c5.2,0,9.5,4.3,9.5,9.5
	C152.3,81.2,148,85.4,142.8,85.4z M119.4,28.9c-0.8-1-1.5-2.1-2.5-3c-4.4-4.4-10.3-6.9-16.6-6.9c-5.9,0-11.6,2.2-16,6.2L71.5,37.9
	L58.8,25.2c-4.4-4-10.1-6.2-16-6.2c-6.3,0-12.2,2.4-16.6,6.9c-4.5,4.5-7,10.4-7,16.8c0,6.3,2.5,12.3,6.9,16.7l45.4,45l11-10.9
	c3.6,4.5,8.5,7.9,14.1,9.6c0.3,0.8,0.4,1.7,0.8,2.5l-26.1,26.1L12.5,72.9c-16.7-16.7-16.7-43.8,0-60.4c16.2-16.2,42-16.5,58.8-1.4
	c16.8-15.2,42.6-14.8,58.8,1.4c6.4,6.4,10.3,14.3,11.8,22.6c-4.9-4.1-11.2-6.6-18.1-6.6C122.3,28.4,120.8,28.6,119.4,28.9z"/>
</svg>
