<?xml version="1.0" encoding="utf-8"?><!DOCTYPE svg PUBLIC "-//W3C//DTD SVG 1.1//EN" "http://www.w3.org/Graphics/SVG/1.1/DTD/svg11.dtd"><svg version="1.1" baseProfile="full" xmlns="http://www.w3.org/2000/svg" xmlns:xlink="http://www.w3.org/1999/xlink" xmlns:ev="http://www.w3.org/2001/xml-events"   height="16px"   width="16px" ><path fill="rgb( 34, 34, 34 )" d="M14,16 C14,16 2,16 2,16 C0.89499999999998,16 0,15.104 0,14 C0,14 1,8 1,8 C1.25999999999999,6.96 1.89499999999998,6 3,6 C3,6 4,6 4,6 C4,6 4,4 4,4 C4,1.791 5.79100000000005,0 8,0 C10.2089999999999,0 12,1.791 12,4 C12,4 12,6 12,6 C12,6 13,6 13,6 C14.105,6 15,6.895 15,8 C15,8 16,14 16,14 C16,15.104 15.105,16 14,16 ZM10,4 C10,2.895 9.10500000000002,2 8,2 C6.89499999999998,2 6,2.895 6,4 C6,4 6,6 6,6 C6,6 10,6 10,6 C10,6 10,4 10,4 ZM13.0119999999999,8 C13.0119999999999,8 12,8 12,8 C12,8 12,9 12,9 C12,9.552 11.552,10 11,10 C10.448,10 10,9.552 10,9 C10,9 10,8 10,8 C10,8 6,8 6,8 C6,8 6,9 6,9 C6,9.552 5.55200000000002,10 5,10 C4.44799999999998,10 4,9.552 4,9 C4,9 4,8 4,8 C4,8 2.98800000000006,8 2.98800000000006,8 C2.98800000000006,8 2.00099999999998,14 2.00099999999998,14 C2.00099999999998,14 13.991,14 13.991,14 C13.991,14 13.0119999999999,8 13.0119999999999,8 Z "/></svg>