<?xml version="1.0" encoding="utf-8"?><!DOCTYPE svg PUBLIC "-//W3C//DTD SVG 1.1//EN" "http://www.w3.org/Graphics/SVG/1.1/DTD/svg11.dtd"><svg version="1.1" baseProfile="full" xmlns="http://www.w3.org/2000/svg" xmlns:xlink="http://www.w3.org/1999/xlink" xmlns:ev="http://www.w3.org/2001/xml-events"   height="12px"   width="13px" ><path fill="rgb( 31, 75, 165 )" d="M13,7.99900000000002 C13,7.99900000000002 13,9.99900000000002 13,9.99900000000002 C13,11.104 12.104,11.999 11,11.999 C11,11.999 9,11.999 9,11.999 C7.89500000000001,11.999 7,11.104 7,9.99900000000002 C7,9.99900000000002 7,7.99900000000002 7,7.99900000000002 C7,7.99900000000002 7,5.99900000000002 7,5.99900000000002 C7,3.23800000000006 9.238,0.99900000000002 12,0.99900000000002 C12.552,0.99900000000002 13,1.44699999999989 13,1.99900000000002 C13,2.55199999999991 12.552,2.99900000000002 12,2.99900000000002 C10.343,2.99900000000002 9,4.3420000000001 9,5.99900000000002 C9,5.99900000000002 11,5.99900000000002 11,5.99900000000002 C12.104,5.99900000000002 13,6.89400000000001 13,7.99900000000002 ZM4,11.999 C4,11.999 2,11.999 2,11.999 C0.89500000000001,11.999 0,11.104 0,9.99900000000002 C0,9.99900000000002 0,7.99900000000002 0,7.99900000000002 C0,7.99900000000002 0,5.99900000000002 0,5.99900000000002 C0,3.23800000000006 2.238,0.99900000000002 5,0.99900000000002 C5.55199999999999,0.99900000000002 6,1.44699999999989 6,1.99900000000002 C6,2.55199999999991 5.55199999999999,2.99900000000002 5,2.99900000000002 C3.34299999999999,2.99900000000002 2,4.3420000000001 2,5.99900000000002 C2,5.99900000000002 4,5.99900000000002 4,5.99900000000002 C5.10400000000001,5.99900000000002 6,6.89400000000001 6,7.99900000000002 C6,7.99900000000002 6,9.99900000000002 6,9.99900000000002 C6,11.104 5.10400000000001,11.999 4,11.999 Z "/></svg>