<?xml version="1.0" encoding="utf-8"?><!DOCTYPE svg PUBLIC "-//W3C//DTD SVG 1.1//EN" "http://www.w3.org/Graphics/SVG/1.1/DTD/svg11.dtd"><svg version="1.1" baseProfile="full" xmlns="http://www.w3.org/2000/svg" xmlns:xlink="http://www.w3.org/1999/xlink" xmlns:ev="http://www.w3.org/2001/xml-events"   height="31px"   width="30px" ><path fill="rgb( 255, 255, 255 )" d="M0,0.99900000000002 C0,0.99900000000002 30,0.99900000000002 30,0.99900000000002 C30,0.99900000000002 30,30.999 30,30.999 C30,30.999 0,30.999 0,30.999 C0,30.999 0,0.99900000000002 0,0.99900000000002 Z "/><path fill="rgb( 207, 207, 207 )" d="M21.966,17.6659999999999 C21.63,21.2190000000001 18.64,23.999 15,23.999 C11.134,23.999 8,20.865 8,16.999 C8,13.829 10.109,11.1569999999999 13,10.2950000000001 C13,10.2950000000001 13,9.49900000000002 13,9.49900000000002 C13,8.67100000000005 13.671,7.99900000000002 14.5,7.99900000000002 C14.577,7.99900000000002 14.643,8.03199999999993 14.717,8.04299999999989 C14.717,8.04299999999989 18.849,10.867 18.849,10.867 C18.94,11.0599999999999 18.999,11.271 18.999,11.499 C18.999,11.7270000000001 18.94,11.9380000000001 18.849,12.1320000000001 C18.849,12.1320000000001 14.717,14.9559999999999 14.717,14.9559999999999 C14.643,14.9670000000001 14.577,14.999 14.5,14.999 C13.689,14.999 13.037,14.3530000000001 13.01,13.549 C11.813,14.24 10.999,15.518 10.999,16.999 C10.999,19.2090000000001 12.79,20.999 15,20.999 C17.209,20.999 18.999,19.2090000000001 18.999,16.999 C18.999,16.999 19.331,15.999 20.5,15.999 C21.668,15.999 22,16.999 22,16.999 C22,17.3430000000001 21.961,17.7090000000001 21.966,17.6659999999999 Z "/></svg>