<?xml version="1.0" encoding="utf-8"?><!DOCTYPE svg PUBLIC "-//W3C//DTD SVG 1.1//EN" "http://www.w3.org/Graphics/SVG/1.1/DTD/svg11.dtd"><svg version="1.1" baseProfile="full" xmlns="http://www.w3.org/2000/svg" xmlns:xlink="http://www.w3.org/1999/xlink" xmlns:ev="http://www.w3.org/2001/xml-events"   height="20px"   width="97px" ><path fill="rgb( 31, 75, 165 )" d="M95.891,13.335 C95.691,13.544 95.423,13.647 95.087,13.647 C95.087,13.647 86.951,13.647 86.951,13.647 C87.079,14.736 87.487,15.6 88.175,16.24 C88.863,16.88 89.823,17.199 91.055,17.199 C92.287,17.199 93.319,16.992 94.151,16.576 C94.439,16.432 94.687,16.36 94.895,16.36 C95.103,16.36 95.303,16.448 95.495,16.624 C95.687,16.8 95.783,17 95.783,17.224 C95.783,17.64 95.611,17.94 95.267,18.123 C94.923,18.308 94.615,18.464 94.343,18.592 C94.071,18.72 93.775,18.831 93.455,18.927 C92.735,19.135 91.903,19.24 90.959,19.24 C88.991,19.24 87.463,18.687 86.375,17.583 C85.287,16.48 84.743,14.912 84.743,12.88 C84.743,11.12 85.199,9.656 86.111,8.488 C87.135,7.176 88.591,6.519 90.479,6.519 C92.271,6.519 93.687,7.128 94.727,8.344 C95.703,9.48 96.191,10.888 96.191,12.567 C96.191,12.872 96.091,13.128 95.891,13.335 ZM92.783,9.184 C92.143,8.64 91.375,8.367 90.479,8.367 C89.055,8.367 88.015,9 87.359,10.264 C87.119,10.712 86.983,11.248 86.951,11.872 C86.951,11.872 94.031,11.872 94.031,11.872 C93.967,10.736 93.551,9.84 92.783,9.184 ZM74.999,8.631 C74.999,8.631 74.879,8.631 74.879,8.631 C74.079,8.631 73.363,8.828 72.731,9.22 C72.099,9.612 71.575,10.119 71.159,10.744 C71.159,10.744 71.159,18.039 71.159,18.039 C71.159,18.344 71.051,18.6 70.835,18.807 C70.619,19.015 70.359,19.12 70.055,19.12 C69.751,19.12 69.495,19.015 69.287,18.807 C69.079,18.6 68.975,18.344 68.975,18.039 C68.975,18.039 68.975,7.744 68.975,7.744 C68.975,7.44 69.079,7.18 69.287,6.963 C69.495,6.747 69.751,6.639 70.055,6.639 C70.359,6.639 70.619,6.747 70.835,6.963 C71.051,7.18 71.159,7.44 71.159,7.744 C71.159,7.744 71.159,8.776 71.159,8.776 C72.279,7.272 73.535,6.519 74.927,6.519 C74.927,6.519 75.047,6.519 75.047,6.519 C75.351,6.519 75.603,6.624 75.803,6.832 C76.003,7.04 76.103,7.299 76.103,7.612 C76.103,7.924 75.999,8.172 75.791,8.356 C75.583,8.54 75.319,8.631 74.999,8.631 ZM56.975,19.12 C56.671,19.12 56.415,19.015 56.207,18.807 C55.999,18.6 55.895,18.344 55.895,18.039 C55.895,18.039 55.895,17.416 55.895,17.416 C55.463,17.864 54.883,18.279 54.155,18.663 C53.427,19.047 52.503,19.24 51.383,19.24 C50.279,19.24 49.359,18.92 48.623,18.279 C47.855,17.607 47.471,16.728 47.471,15.64 C47.471,14.456 47.919,13.528 48.815,12.856 C49.791,12.12 51.183,11.752 52.991,11.752 C52.991,11.752 55.895,11.752 55.895,11.752 C55.895,11.752 55.895,11.56 55.895,11.56 C55.895,10.488 55.631,9.724 55.103,9.268 C54.575,8.811 53.767,8.584 52.679,8.584 C51.751,8.584 50.688,8.776 49.487,9.16 C49.359,9.192 49.215,9.208 49.055,9.208 C48.895,9.208 48.727,9.124 48.551,8.956 C48.375,8.788 48.287,8.528 48.287,8.176 C48.287,7.824 48.495,7.56 48.911,7.383 C50.255,6.807 51.647,6.519 53.087,6.519 C54.719,6.519 55.983,7.016 56.879,8.008 C57.679,8.872 58.079,9.952 58.079,11.248 C58.079,11.248 58.079,18.039 58.079,18.039 C58.079,18.344 57.971,18.6 57.755,18.807 C57.539,19.015 57.279,19.12 56.975,19.12 ZM55.895,13.504 C55.895,13.504 53.279,13.504 53.279,13.504 C52.143,13.504 51.255,13.647 50.615,13.936 C49.975,14.224 49.655,14.712 49.655,15.4 C49.655,16.68 50.503,17.32 52.2,17.32 C52.951,17.32 53.651,17.136 54.299,16.768 C54.947,16.4 55.479,15.984 55.895,15.52 C55.895,15.52 55.895,13.504 55.895,13.504 ZM35.304,18.112 C35.208,18.384 35.032,18.62 34.776,18.819 C34.52,19.02 34.232,19.12 33.912,19.12 C33.592,19.12 33.303,19.02 33.048,18.819 C32.792,18.62 32.607,18.376 32.496,18.088 C32.496,18.088 29.952,10.144 29.952,10.144 C29.952,10.144 27.408,18.088 27.408,18.088 C27.296,18.376 27.112,18.62 26.856,18.819 C26.6,19.02 26.312,19.12 25.992,19.12 C25.672,19.12 25.383,19.02 25.128,18.819 C24.872,18.62 24.696,18.384 24.6,18.112 C24.6,18.112 21.192,8.128 21.192,8.128 C21.144,7.984 21.12,7.804 21.12,7.588 C21.12,7.371 21.224,7.16 21.432,6.952 C21.639,6.744 21.88,6.639 22.152,6.639 C22.712,6.639 23.056,6.855 23.184,7.288 C23.184,7.288 25.992,16.527 25.992,16.527 C25.992,16.527 28.776,7.503 28.776,7.503 C28.856,7.248 29.004,7.04 29.22,6.88 C29.436,6.72 29.679,6.639 29.952,6.639 C30.224,6.639 30.468,6.72 30.684,6.88 C30.9,7.04 31.048,7.248 31.128,7.503 C31.128,7.503 33.912,16.527 33.912,16.527 C33.912,16.527 36.72,7.288 36.72,7.288 C36.848,6.855 37.191,6.639 37.752,6.639 C38.024,6.639 38.264,6.744 38.472,6.952 C38.679,7.16 38.784,7.371 38.784,7.588 C38.784,7.804 38.76,7.984 38.712,8.128 C38.712,8.128 35.304,18.112 35.304,18.112 ZM30,4 C28.895,4 28,3.104 28,1.999 C28,0.895 28.895,0 30,0 C31.104,0 32,0.895 32,1.999 C32,3.104 31.104,4 30,4 ZM10.416,19.12 C10.112,19.12 9.85599999999999,19.015 9.648,18.807 C9.44,18.6 9.336,18.344 9.336,18.039 C9.336,18.039 9.336,17.416 9.336,17.416 C8.904,17.864 8.324,18.279 7.596,18.663 C6.86799999999999,19.047 5.944,19.24 4.824,19.24 C3.72,19.24 2.8,18.92 2.06399999999999,18.279 C1.29600000000001,17.607 0.91200000000001,16.728 0.91200000000001,15.64 C0.91200000000001,14.456 1.36,13.528 2.256,12.856 C3.232,12.12 4.624,11.752 6.432,11.752 C6.432,11.752 9.336,11.752 9.336,11.752 C9.336,11.752 9.336,11.56 9.336,11.56 C9.336,10.488 9.072,9.724 8.544,9.268 C8.01600000000001,8.811 7.208,8.584 6.12,8.584 C5.19199999999999,8.584 4.128,8.776 2.928,9.16 C2.8,9.192 2.65600000000001,9.208 2.496,9.208 C2.336,9.208 2.16800000000001,9.124 1.992,8.956 C1.816,8.788 1.72799999999999,8.528 1.72799999999999,8.176 C1.72799999999999,7.824 1.93600000000001,7.56 2.352,7.383 C3.696,6.807 5.08799999999999,6.519 6.52800000000001,6.519 C8.16,6.519 9.42400000000001,7.016 10.32,8.008 C11.12,8.872 11.52,9.952 11.52,11.248 C11.52,11.248 11.52,18.039 11.52,18.039 C11.52,18.344 11.412,18.6 11.196,18.807 C10.98,19.015 10.72,19.12 10.416,19.12 ZM9.336,13.504 C9.336,13.504 6.72,13.504 6.72,13.504 C5.584,13.504 4.696,13.647 4.056,13.936 C3.416,14.224 3.096,14.712 3.096,15.4 C3.096,16.68 3.944,17.32 5.64,17.32 C6.392,17.32 7.092,17.136 7.73999999999999,16.768 C8.38800000000001,16.4 8.92,15.984 9.336,15.52 C9.336,15.52 9.336,13.504 9.336,13.504 Z "/></svg>