<?xml version="1.0" encoding="utf-8"?><!DOCTYPE svg PUBLIC "-//W3C//DTD SVG 1.1//EN" "http://www.w3.org/Graphics/SVG/1.1/DTD/svg11.dtd"><svg version="1.1" baseProfile="full" xmlns="http://www.w3.org/2000/svg" xmlns:xlink="http://www.w3.org/1999/xlink" xmlns:ev="http://www.w3.org/2001/xml-events"   height="20px"   width="97px" ><defs><filter id="Filter_0">  <feFlood flood-color="rgb( 255, 255, 255 )" flood-opacity="1" result="floodOut" />  <feComposite operator="atop" in="floodOut" in2="SourceGraphic" result="compOut" />  <feBlend mode="normal" in="compOut" in2="SourceGraphic" /></filter></defs><g filter="url(#Filter_0)"><path opacity="0.302" fill="rgb( 213, 213, 213 )" d="M95.891,13.3359999999998 C95.691,13.5439999999999 95.423,13.6480000000001 95.087,13.6480000000001 C95.087,13.6480000000001 86.951,13.6480000000001 86.951,13.6480000000001 C87.079,14.7359999999999 87.487,15.5999999999999 88.175,16.239 C88.863,16.8800000000001 89.823,17.1999999999998 91.055,17.1999999999998 C92.287,17.1999999999998 93.319,16.9920000000002 94.151,16.576 C94.439,16.4319999999998 94.687,16.3600000000001 94.895,16.3600000000001 C95.103,16.3600000000001 95.303,16.4479999999999 95.495,16.6239999999998 C95.687,16.8000000000002 95.783,17 95.783,17.2240000000002 C95.783,17.6399999999999 95.611,17.9400000000001 95.267,18.1239999999998 C94.923,18.308 94.615,18.4639999999999 94.343,18.5920000000001 C94.071,18.7199999999998 93.775,18.8310000000001 93.455,18.9270000000001 C92.735,19.1350000000002 91.903,19.2399999999998 90.959,19.2399999999998 C88.991,19.2399999999998 87.463,18.6880000000001 86.375,17.5839999999998 C85.287,16.48 84.743,14.9119999999998 84.743,12.8800000000001 C84.743,11.1199999999999 85.199,9.65599999999995 86.111,8.48799999999983 C87.135,7.17599999999993 88.591,6.51899999999978 90.479,6.51899999999978 C92.271,6.51899999999978 93.687,7.12800000000016 94.727,8.34299999999985 C95.703,9.48000000000002 96.191,10.8879999999999 96.191,12.5680000000002 C96.191,12.8719999999998 96.091,13.1280000000002 95.891,13.3359999999998 ZM92.783,9.1840000000002 C92.143,8.63999999999987 91.375,8.36700000000019 90.479,8.36700000000019 C89.055,8.36700000000019 88.015,9 87.359,10.2640000000001 C87.119,10.712 86.983,11.2469999999998 86.951,11.8719999999998 C86.951,11.8719999999998 94.031,11.8719999999998 94.031,11.8719999999998 C93.967,10.7359999999999 93.551,9.84000000000015 92.783,9.1840000000002 ZM74.999,8.63200000000006 C74.999,8.63200000000006 74.879,8.63200000000006 74.879,8.63200000000006 C74.079,8.63200000000006 73.363,8.82799999999997 72.731,9.2199999999998 C72.099,9.61200000000008 71.575,10.1190000000001 71.159,10.7440000000001 C71.159,10.7440000000001 71.159,18.04 71.159,18.04 C71.159,18.3440000000001 71.051,18.5999999999999 70.835,18.8069999999998 C70.619,19.0149999999999 70.359,19.1199999999999 70.055,19.1199999999999 C69.751,19.1199999999999 69.495,19.0149999999999 69.287,18.8069999999998 C69.079,18.5999999999999 68.975,18.3440000000001 68.975,18.04 C68.975,18.04 68.975,7.74400000000014 68.975,7.74400000000014 C68.975,7.44000000000005 69.079,7.17999999999984 69.287,6.96399999999994 C69.495,6.74699999999984 69.751,6.63999999999987 70.055,6.63999999999987 C70.359,6.63999999999987 70.619,6.74699999999984 70.835,6.96399999999994 C71.051,7.17999999999984 71.159,7.44000000000005 71.159,7.74400000000014 C71.159,7.74400000000014 71.159,8.77599999999984 71.159,8.77599999999984 C72.279,7.27199999999993 73.535,6.51899999999978 74.927,6.51899999999978 C74.927,6.51899999999978 75.047,6.51899999999978 75.047,6.51899999999978 C75.351,6.51899999999978 75.603,6.6239999999998 75.803,6.83199999999988 C76.003,7.03999999999996 76.103,7.30000000000018 76.103,7.61200000000008 C76.103,7.92399999999998 75.999,8.17200000000003 75.791,8.35600000000022 C75.583,8.53999999999996 75.319,8.63200000000006 74.999,8.63200000000006 ZM56.975,19.1199999999999 C56.671,19.1199999999999 56.415,19.0149999999999 56.207,18.8069999999998 C55.999,18.5999999999999 55.895,18.3440000000001 55.895,18.04 C55.895,18.04 55.895,17.4160000000002 55.895,17.4160000000002 C55.463,17.864 54.883,18.2800000000002 54.155,18.6640000000002 C53.427,19.0479999999998 52.503,19.2399999999998 51.383,19.2399999999998 C50.279,19.2399999999998 49.359,18.9189999999999 48.623,18.2800000000002 C47.855,17.6080000000002 47.471,16.7280000000001 47.471,15.6390000000001 C47.471,14.4560000000001 47.919,13.5279999999998 48.815,12.8560000000002 C49.791,12.1199999999999 51.183,11.7510000000002 52.991,11.7510000000002 C52.991,11.7510000000002 55.895,11.7510000000002 55.895,11.7510000000002 C55.895,11.7510000000002 55.895,11.5590000000002 55.895,11.5590000000002 C55.895,10.4879999999998 55.631,9.72400000000016 55.103,9.26800000000003 C54.575,8.8119999999999 53.767,8.58399999999983 52.679,8.58399999999983 C51.751,8.58399999999983 50.687,8.77599999999984 49.487,9.15999999999985 C49.359,9.19200000000001 49.215,9.20800000000008 49.055,9.20800000000008 C48.895,9.20800000000008 48.727,9.1239999999998 48.551,8.95600000000013 C48.375,8.78800000000001 48.287,8.52799999999979 48.287,8.17500000000018 C48.287,7.82400000000007 48.495,7.55999999999995 48.911,7.38299999999981 C50.255,6.80799999999999 51.647,6.51899999999978 53.087,6.51899999999978 C54.719,6.51899999999978 55.983,7.01499999999987 56.879,8.00700000000006 C57.679,8.87199999999984 58.079,9.95200000000023 58.079,11.2469999999998 C58.079,11.2469999999998 58.079,18.04 58.079,18.04 C58.079,18.3440000000001 57.971,18.5999999999999 57.755,18.8069999999998 C57.539,19.0149999999999 57.279,19.1199999999999 56.975,19.1199999999999 ZM55.895,13.5039999999999 C55.895,13.5039999999999 53.279,13.5039999999999 53.279,13.5039999999999 C52.143,13.5039999999999 51.255,13.6480000000001 50.615,13.9360000000001 C49.975,14.2240000000002 49.655,14.712 49.655,15.4000000000001 C49.655,16.6799999999998 50.503,17.3200000000002 52.199,17.3200000000002 C52.951,17.3200000000002 53.651,17.136 54.299,16.768 C54.947,16.4000000000001 55.479,15.9839999999999 55.895,15.5189999999998 C55.895,15.5189999999998 55.895,13.5039999999999 55.895,13.5039999999999 ZM35.304,18.1120000000001 C35.208,18.384 35.031,18.6199999999999 34.776,18.8200000000002 C34.52,19.02 34.232,19.1199999999999 33.912,19.1199999999999 C33.591,19.1199999999999 33.303,19.02 33.048,18.8200000000002 C32.792,18.6199999999999 32.607,18.3760000000002 32.496,18.0880000000002 C32.496,18.0880000000002 29.952,10.1439999999998 29.952,10.1439999999998 C29.952,10.1439999999998 27.408,18.0880000000002 27.408,18.0880000000002 C27.296,18.3760000000002 27.111,18.6199999999999 26.856,18.8200000000002 C26.6,19.02 26.312,19.1199999999999 25.992,19.1199999999999 C25.671,19.1199999999999 25.383,19.02 25.128,18.8200000000002 C24.872,18.6199999999999 24.696,18.384 24.6,18.1120000000001 C24.6,18.1120000000001 21.192,8.12800000000016 21.192,8.12800000000016 C21.144,7.98300000000017 21.12,7.80400000000009 21.12,7.58800000000019 C21.12,7.37199999999984 21.224,7.15999999999985 21.432,6.95200000000023 C21.639,6.74400000000014 21.879,6.63999999999987 22.152,6.63999999999987 C22.712,6.63999999999987 23.055,6.85600000000022 23.184,7.28699999999981 C23.184,7.28699999999981 25.992,16.5279999999998 25.992,16.5279999999998 C25.992,16.5279999999998 28.776,7.50399999999991 28.776,7.50399999999991 C28.856,7.24800000000005 29.004,7.03999999999996 29.22,6.88000000000011 C29.436,6.7199999999998 29.679,6.63999999999987 29.952,6.63999999999987 C30.224,6.63999999999987 30.468,6.7199999999998 30.684,6.88000000000011 C30.9,7.03999999999996 31.047,7.24800000000005 31.128,7.50399999999991 C31.128,7.50399999999991 33.912,16.5279999999998 33.912,16.5279999999998 C33.912,16.5279999999998 36.72,7.28699999999981 36.72,7.28699999999981 C36.848,6.85600000000022 37.191,6.63999999999987 37.752,6.63999999999987 C38.024,6.63999999999987 38.264,6.74400000000014 38.472,6.95200000000023 C38.679,7.15999999999985 38.784,7.37199999999984 38.784,7.58800000000019 C38.784,7.80400000000009 38.76,7.98300000000017 38.712,8.12800000000016 C38.712,8.12800000000016 35.304,18.1120000000001 35.304,18.1120000000001 ZM30,3.9989999999998 C28.895,3.9989999999998 28,3.10399999999981 28,2 C28,0.89499999999998 28.895,0 30,0 C31.104,0 32,0.89499999999998 32,2 C32,3.10399999999981 31.104,3.9989999999998 30,3.9989999999998 ZM10.416,19.1199999999999 C10.112,19.1199999999999 9.85599999999999,19.0149999999999 9.648,18.8069999999998 C9.44,18.5999999999999 9.336,18.3440000000001 9.336,18.04 C9.336,18.04 9.336,17.4160000000002 9.336,17.4160000000002 C8.904,17.864 8.324,18.2800000000002 7.596,18.6640000000002 C6.86799999999999,19.0479999999998 5.944,19.2399999999998 4.824,19.2399999999998 C3.72,19.2399999999998 2.8,18.9189999999999 2.06399999999999,18.2800000000002 C1.29600000000001,17.6080000000002 0.91200000000001,16.7280000000001 0.91200000000001,15.6390000000001 C0.91200000000001,14.4560000000001 1.36,13.5279999999998 2.256,12.8560000000002 C3.232,12.1199999999999 4.624,11.7510000000002 6.432,11.7510000000002 C6.432,11.7510000000002 9.336,11.7510000000002 9.336,11.7510000000002 C9.336,11.7510000000002 9.336,11.5590000000002 9.336,11.5590000000002 C9.336,10.4879999999998 9.072,9.72400000000016 8.544,9.26800000000003 C8.01600000000001,8.8119999999999 7.208,8.58399999999983 6.12,8.58399999999983 C5.19199999999999,8.58399999999983 4.128,8.77599999999984 2.928,9.15999999999985 C2.8,9.19200000000001 2.65600000000001,9.20800000000008 2.496,9.20800000000008 C2.336,9.20800000000008 2.16800000000001,9.1239999999998 1.992,8.95600000000013 C1.816,8.78800000000001 1.72799999999999,8.52799999999979 1.72799999999999,8.17500000000018 C1.72799999999999,7.82400000000007 1.93600000000001,7.55999999999995 2.352,7.38299999999981 C3.696,6.80799999999999 5.08799999999999,6.51899999999978 6.52800000000001,6.51899999999978 C8.16,6.51899999999978 9.42400000000001,7.01499999999987 10.32,8.00700000000006 C11.12,8.87199999999984 11.52,9.95200000000023 11.52,11.2469999999998 C11.52,11.2469999999998 11.52,18.04 11.52,18.04 C11.52,18.3440000000001 11.412,18.5999999999999 11.196,18.8069999999998 C10.98,19.0149999999999 10.72,19.1199999999999 10.416,19.1199999999999 ZM9.336,13.5039999999999 C9.336,13.5039999999999 6.72,13.5039999999999 6.72,13.5039999999999 C5.584,13.5039999999999 4.696,13.6480000000001 4.056,13.9360000000001 C3.416,14.2240000000002 3.096,14.712 3.096,15.4000000000001 C3.096,16.6799999999998 3.944,17.3200000000002 5.64,17.3200000000002 C6.392,17.3200000000002 7.092,17.136 7.73999999999999,16.768 C8.38800000000001,16.4000000000001 8.92,15.9839999999999 9.336,15.5189999999998 C9.336,15.5189999999998 9.336,13.5039999999999 9.336,13.5039999999999 Z "/></g></svg>