<?xml version="1.0" encoding="utf-8"?><!DOCTYPE svg PUBLIC "-//W3C//DTD SVG 1.1//EN" "http://www.w3.org/Graphics/SVG/1.1/DTD/svg11.dtd"><svg version="1.1" baseProfile="full" xmlns="http://www.w3.org/2000/svg" xmlns:xlink="http://www.w3.org/1999/xlink" xmlns:ev="http://www.w3.org/2001/xml-events"   height="32px"   width="32px" ><path opacity="0.302" fill="rgb( 77, 77, 77 )" d="M16,32 C7.16399999999999,32 0,24.836 0,16 C0,7.16399999999999 7.16399999999999,0 16,0 C24.836,0 32,7.16399999999999 32,16 C32,24.836 24.836,32 16,32 ZM16,3 C8.83199999999999,3 3,8.83199999999999 3,16 C3,23.168 8.83199999999999,29 16,29 C23.168,29 29,23.168 29,16 C29,8.83199999999999 23.168,3 16,3 ZM14.514,22.605 C14.514,22.605 14.511,22.601 14.511,22.601 C14.2430000000001,22.846 13.891,23 13.5,23 C12.672,23 12,22.328 12,21.5 C12,21.062 12.1900000000001,20.672 12.489,20.398 C12.489,20.398 12.486,20.394 12.486,20.394 C12.486,20.394 17.28,16 17.28,16 C17.28,16 12.486,11.605 12.486,11.605 C12.486,11.605 12.489,11.601 12.489,11.601 C12.1900000000001,11.328 12,10.937 12,10.5 C12,9.67099999999999 12.672,9 13.5,9 C13.891,9 14.2430000000001,9.15300000000002 14.511,9.39800000000002 C14.511,9.39800000000002 14.514,9.39400000000001 14.514,9.39400000000001 C14.514,9.39400000000001 20.514,14.894 20.514,14.894 C20.823,15.178 21,15.579 21,16 C21,16.421 20.823,16.821 20.514,17.105 C20.514,17.105 14.514,22.605 14.514,22.605 Z "/></svg>