<?xml version="1.0" encoding="utf-8"?><!DOCTYPE svg PUBLIC "-//W3C//DTD SVG 1.1//EN" "http://www.w3.org/Graphics/SVG/1.1/DTD/svg11.dtd"><svg version="1.1" baseProfile="full" xmlns="http://www.w3.org/2000/svg" xmlns:xlink="http://www.w3.org/1999/xlink" xmlns:ev="http://www.w3.org/2001/xml-events"   height="16px"   width="16px" ><path fill="rgb( 207, 207, 207 )" d="M14,8 C14,8 13.667,8 13.667,8 C13.667,8 9,11 9,11 C9,11 8.333,8 8.333,8 C8.333,8 8,8 8,8 C6.895,8 6,7.10400000000004 6,6 C6,6 6,2 6,2 C6,0.89499999999998 6.895,0 8,0 C8,0 14,0 14,0 C15.105,0 16,0.89499999999998 16,2 C16,2 16,6 16,6 C16,7.10400000000004 15.105,8 14,8 ZM14,2.00700000000006 C14,2.00700000000006 8,2.00700000000006 8,2.00700000000006 C8,2.00700000000006 8,6.00600000000009 8,6.00600000000009 C8,6.00600000000009 10.027,6.00600000000009 10.027,6.00600000000009 C10.027,6.00600000000009 10.546,8.02399999999989 10.546,8.02399999999989 C10.546,8.02399999999989 12.926,6.00600000000009 12.926,6.00600000000009 C12.926,6.00600000000009 14,6.00600000000009 14,6.00600000000009 C14,6.00600000000009 14,2.00700000000006 14,2.00700000000006 ZM2,11.0060000000001 C2,11.0060000000001 4.027,11.0060000000001 4.027,11.0060000000001 C4.027,11.0060000000001 4.546,13.0239999999999 4.546,13.0239999999999 C4.546,13.0239999999999 6.926,11.0060000000001 6.926,11.0060000000001 C6.926,11.0060000000001 7.754,11.0060000000001 7.754,11.0060000000001 C7.754,11.0060000000001 8.193,12.98 8.193,12.98 C8.128,12.9870000000001 8.066,13 8,13 C8,13 7.667,13 7.667,13 C7.667,13 3,16 3,16 C3,16 2.333,13 2.333,13 C2.333,13 2,13 2,13 C0.896,13 0,12.104 0,11 C0,11 0,7 0,7 C0,5.89499999999998 0.896,5 2,5 C2,5 5,5 5,5 C5,5 5,7.00399999999991 5,7.00399999999991 C5,7.00500000000011 5,7.00600000000009 5,7.00700000000006 C5,7.00700000000006 2,7.00700000000006 2,7.00700000000006 C2,7.00700000000006 2,11.0060000000001 2,11.0060000000001 Z "/></svg>