<?xml version="1.0" encoding="utf-8"?><!DOCTYPE svg PUBLIC "-//W3C//DTD SVG 1.1//EN" "http://www.w3.org/Graphics/SVG/1.1/DTD/svg11.dtd"><svg version="1.1" baseProfile="full" xmlns="http://www.w3.org/2000/svg" xmlns:xlink="http://www.w3.org/1999/xlink" xmlns:ev="http://www.w3.org/2001/xml-events"   height="32px"   width="32px" ><path opacity="0.302" fill="rgb( 77, 77, 77 )" d="M16,32 C24.836,32 32,24.836 32,16 C32,7.16399999999999 24.836,0 16,0 C7.164,0 0,7.16399999999999 0,16 C0,24.836 7.164,32 16,32 ZM16,3 C23.168,3 29,8.83199999999999 29,16 C29,23.168 23.168,29 16,29 C8.832,29 3,23.168 3,16 C3,8.83199999999999 8.832,3 16,3 ZM17.486,22.605 C17.486,22.605 17.489,22.601 17.489,22.601 C17.757,22.846 18.109,23 18.5,23 C19.328,23 20,22.328 20,21.5 C20,21.062 19.81,20.672 19.511,20.398 C19.511,20.398 19.514,20.394 19.514,20.394 C19.514,20.394 14.72,16 14.72,16 C14.72,16 19.514,11.605 19.514,11.605 C19.514,11.605 19.511,11.601 19.511,11.601 C19.81,11.328 20,10.937 20,10.5 C20,9.67099999999999 19.328,9 18.5,9 C18.109,9 17.757,9.15300000000002 17.489,9.39800000000002 C17.489,9.39800000000002 17.486,9.39400000000001 17.486,9.39400000000001 C17.486,9.39400000000001 11.486,14.894 11.486,14.894 C11.177,15.178 11,15.579 11,16 C11,16.421 11.177,16.821 11.486,17.105 C11.486,17.105 17.486,22.605 17.486,22.605 Z "/></svg>