<?xml version="1.0" encoding="utf-8"?><!DOCTYPE svg PUBLIC "-//W3C//DTD SVG 1.1//EN" "http://www.w3.org/Graphics/SVG/1.1/DTD/svg11.dtd"><svg version="1.1" baseProfile="full" xmlns="http://www.w3.org/2000/svg" xmlns:xlink="http://www.w3.org/1999/xlink" xmlns:ev="http://www.w3.org/2001/xml-events"   height="18px"   width="18px" ><path fill="rgb( 34, 34, 34 )" d="M16.717,16.717 C16.327,17.108 15.694,17.108 15.303,16.717 C15.303,16.717 12.154,13.567 12.154,13.567 C9.41200000000003,15.617 5.524,15.423 3.03200000000004,12.932 C0.29899999999998,10.198 0.29899999999998,5.766 3.03200000000004,3.032 C5.76599999999996,0.298 10.198,0.298 12.932,3.032 C15.423,5.524 15.6180000000001,9.412 13.568,12.153 C13.568,12.153 16.717,15.303 16.717,15.303 C17.1079999999999,15.693 17.1079999999999,16.327 16.717,16.717 ZM11.518,4.446 C9.56500000000005,2.494 6.399,2.494 4.447,4.446 C2.49400000000003,6.399 2.49400000000003,9.565 4.447,11.517 C6.399,13.47 9.56500000000005,13.47 11.518,11.517 C13.47,9.565 13.47,6.399 11.518,4.446 Z "/></svg>