<?xml version="1.0" encoding="utf-8"?><!DOCTYPE svg PUBLIC "-//W3C//DTD SVG 1.1//EN" "http://www.w3.org/Graphics/SVG/1.1/DTD/svg11.dtd"><svg version="1.1" baseProfile="full" xmlns="http://www.w3.org/2000/svg" xmlns:xlink="http://www.w3.org/1999/xlink" xmlns:ev="http://www.w3.org/2001/xml-events"   height="20px"   width="34px" ><path fill="rgb( 101, 101, 101 )" d="M32.944,15.5 C32.944,15.5 32.982,15.5 32.982,15.5 C32.994,15.5 33.011,15.4989999999998 33.024,15.5050000000001 C33.033,15.511 33.04,15.5219999999999 33.04,15.5340000000001 C33.04,15.547 33.034,15.5610000000001 33.024,15.567 C33.011,15.5729999999999 32.995,15.5729999999999 32.9829999999999,15.5729999999999 C32.9829999999999,15.5729999999999 32.944,15.5729999999999 32.944,15.5729999999999 C32.944,15.5729999999999 32.944,15.5 32.944,15.5 C32.944,15.5 32.944,15.5 32.944,15.5 ZM32.944,15.6210000000001 C32.944,15.6210000000001 32.994,15.6210000000001 32.994,15.6210000000001 C32.994,15.6210000000001 33.038,15.7330000000002 33.038,15.7330000000002 C33.038,15.7330000000002 33.1130000000001,15.7330000000002 33.1130000000001,15.7330000000002 C33.1130000000001,15.7330000000002 33.0599999999999,15.6080000000002 33.0599999999999,15.6080000000002 C33.09,15.596 33.111,15.567 33.111,15.5360000000001 C33.111,15.5070000000001 33.096,15.4780000000001 33.074,15.4630000000002 C33.052,15.4470000000001 33.025,15.4470000000001 32.999,15.4470000000001 C32.999,15.4470000000001 32.877,15.4470000000001 32.877,15.4470000000001 C32.877,15.4470000000001 32.877,15.7330000000002 32.877,15.7330000000002 C32.877,15.7330000000002 32.944,15.7330000000002 32.944,15.7330000000002 C32.944,15.7330000000002 32.944,15.6210000000001 32.944,15.6210000000001 C32.944,15.6210000000001 32.944,15.6210000000001 32.944,15.6210000000001 ZM32.99,15.8380000000002 C33.128,15.8380000000002 33.241,15.7269999999999 33.241,15.5920000000001 C33.241,15.4560000000001 33.128,15.346 32.99,15.346 C32.852,15.346 32.739,15.4560000000001 32.739,15.5920000000001 C32.739,15.7269999999999 32.852,15.8380000000002 32.99,15.8380000000002 C32.99,15.8380000000002 32.99,15.8380000000002 32.99,15.8380000000002 ZM32.66,15.5920000000001 C32.66,15.413 32.808,15.268 32.99,15.268 C33.171,15.268 33.318,15.413 33.318,15.5920000000001 C33.318,15.7689999999998 33.171,15.9160000000002 32.99,15.9160000000002 C32.808,15.9160000000002 32.66,15.7689999999998 32.66,15.5920000000001 C32.66,15.5920000000001 32.66,15.5920000000001 32.66,15.5920000000001 ZM32.944,12.192 C32.944,12.192 32.979,12.192 32.979,12.192 C32.9930000000001,12.192 33.011,12.1889999999999 33.024,12.1950000000002 C33.033,12.203 33.04,12.2139999999999 33.04,12.2249999999999 C33.04,12.2370000000001 33.034,12.2510000000002 33.024,12.2579999999998 C33.01,12.2640000000001 32.995,12.2640000000001 32.982,12.2640000000001 C32.982,12.2640000000001 32.944,12.2640000000001 32.944,12.2640000000001 C32.944,12.2640000000001 32.944,12.192 32.944,12.192 C32.944,12.192 32.944,12.192 32.944,12.192 ZM32.944,12.3139999999999 C32.944,12.3139999999999 32.994,12.3139999999999 32.994,12.3139999999999 C32.994,12.3139999999999 33.038,12.4229999999998 33.038,12.4229999999998 C33.038,12.4229999999998 33.1130000000001,12.4229999999998 33.1130000000001,12.4229999999998 C33.1130000000001,12.4229999999998 33.0599999999999,12.3000000000002 33.0599999999999,12.3000000000002 C33.09,12.2869999999998 33.111,12.2579999999998 33.111,12.2260000000001 C33.111,12.1979999999999 33.096,12.1689999999999 33.073,12.1559999999999 C33.052,12.1410000000001 33.025,12.1410000000001 32.999,12.1410000000001 C32.999,12.1410000000001 32.877,12.1410000000001 32.877,12.1410000000001 C32.877,12.1410000000001 32.877,12.4229999999998 32.877,12.4229999999998 C32.877,12.4229999999998 32.944,12.4229999999998 32.944,12.4229999999998 C32.944,12.4229999999998 32.944,12.3139999999999 32.944,12.3139999999999 C32.944,12.3139999999999 32.944,12.3139999999999 32.944,12.3139999999999 ZM32.7380000000001,12.2829999999999 C32.7380000000001,12.1480000000001 32.851,12.0369999999998 32.989,12.0369999999998 C33.128,12.0369999999998 33.2380000000001,12.1480000000001 33.2380000000001,12.2829999999999 C33.2380000000001,12.4169999999999 33.128,12.5279999999998 32.989,12.5279999999998 C32.851,12.5279999999998 32.7380000000001,12.4169999999999 32.7380000000001,12.2829999999999 C32.7380000000001,12.2829999999999 32.7380000000001,12.2829999999999 32.7380000000001,12.2829999999999 ZM32.989,12.6060000000002 C33.171,12.6060000000002 33.318,12.46 33.318,12.2829999999999 C33.318,12.1039999999998 33.171,11.96 32.989,11.96 C32.806,11.96 32.66,12.1039999999998 32.66,12.2829999999999 C32.66,12.46 32.806,12.6060000000002 32.989,12.6060000000002 C32.989,12.6060000000002 32.989,12.6060000000002 32.989,12.6060000000002 ZM18.211,8.51600000000008 C18.08,9.73000000000002 17.847,10.9560000000001 17.664,12.1689999999999 C17.664,12.1689999999999 17.616,12.4319999999998 17.616,12.4319999999998 C17.616,12.4319999999998 18.6660000000001,12.4319999999998 18.6660000000001,12.4319999999998 C19.0410000000001,10.0369999999998 19.1319999999999,9.57000000000016 19.7190000000001,9.62899999999991 C19.814,9.13799999999992 19.9880000000001,8.70800000000008 20.117,8.49200000000019 C19.679,8.404 19.432,8.64699999999993 19.1130000000001,9.11000000000013 C19.1369999999999,8.91100000000006 19.184,8.71500000000015 19.174,8.51600000000008 C19.174,8.51600000000008 18.211,8.51600000000008 18.211,8.51600000000008 C18.211,8.51600000000008 18.211,8.51600000000008 18.211,8.51600000000008 ZM27.378,8.51600000000008 C27.247,9.73000000000002 27.014,10.9560000000001 26.831,12.1689999999999 C26.831,12.1689999999999 26.783,12.4319999999998 26.783,12.4319999999998 C26.783,12.4319999999998 27.831,12.4319999999998 27.831,12.4319999999998 C28.207,10.0369999999998 28.298,9.57000000000016 28.886,9.62899999999991 C28.98,9.13799999999992 29.154,8.70800000000008 29.285,8.49200000000019 C28.845,8.404 28.6,8.64699999999993 28.278,9.11000000000013 C28.304,8.91100000000006 28.35,8.71500000000015 28.342,8.51600000000008 C28.342,8.51600000000008 27.378,8.51600000000008 27.378,8.51600000000008 C27.378,8.51600000000008 27.378,8.51600000000008 27.378,8.51600000000008 ZM30.077,10.7559999999999 C30.077,9.98599999999988 30.413,9.44000000000005 30.89,9.44000000000005 C31.25,9.44000000000005 31.446,9.71000000000004 31.446,10.2069999999999 C31.446,10.9839999999999 31.103,11.5279999999998 30.614,11.5279999999998 C30.256,11.5279999999998 30.077,11.268 30.077,10.7559999999999 C30.077,10.7559999999999 30.077,10.7559999999999 30.077,10.7559999999999 ZM32.961,7.61799999999994 C32.961,7.61799999999994 31.925,7.61799999999994 31.925,7.61799999999994 C31.925,7.61799999999994 31.693,9.00799999999981 31.693,9.00799999999981 C31.4059999999999,8.63799999999992 31.099,8.47499999999991 30.692,8.47499999999991 C29.7670000000001,8.47499999999991 28.985,9.57299999999987 28.985,10.8760000000002 C28.985,11.8539999999998 29.489,12.5010000000002 30.251,12.5010000000002 C30.636,12.5010000000002 30.9299999999999,12.3690000000001 31.218,12.067 C31.218,12.067 31.169,12.4319999999998 31.169,12.4319999999998 C31.169,12.4319999999998 32.1609999999999,12.4319999999998 32.1609999999999,12.4319999999998 C32.1609999999999,12.4319999999998 32.961,7.61799999999994 32.961,7.61799999999994 C32.961,7.61799999999994 32.961,7.61799999999994 32.961,7.61799999999994 ZM9.57600000000002,9.75500000000011 C9.57600000000002,10.25 9.82000000000005,10.5909999999999 10.375,10.848 C10.799,11.0439999999999 10.865,11.1019999999999 10.865,11.2800000000002 C10.865,11.5250000000001 10.677,11.634 10.263,11.634 C9.95000000000005,11.634 9.65899999999999,11.587 9.32299999999998,11.48 C9.32299999999998,11.48 9.18600000000004,12.3429999999998 9.17899999999997,12.3850000000002 C9.41700000000003,12.4349999999999 9.63,12.482 10.27,12.5010000000002 C11.377,12.5010000000002 11.888,12.0859999999998 11.888,11.192 C11.888,10.6529999999998 11.674,10.337 11.148,10.0999999999999 C10.7089999999999,9.90099999999984 10.658,9.85699999999997 10.658,9.67500000000018 C10.658,9.46199999999999 10.833,9.35399999999981 11.172,9.35399999999981 C11.378,9.35399999999981 11.659,9.3760000000002 11.925,9.41300000000001 C11.925,9.41300000000001 12.075,8.50500000000011 12.075,8.50500000000011 C11.803,8.46399999999994 11.391,8.42999999999984 11.151,8.42999999999984 C9.97799999999995,8.42999999999984 9.572,9.03099999999995 9.57600000000002,9.75500000000011 C9.57600000000002,9.75500000000011 9.57600000000002,9.75500000000011 9.57600000000002,9.75500000000011 ZM16.546,10.0189999999998 C16.552,9.9380000000001 16.657,9.32000000000016 16.061,9.32000000000016 C15.729,9.32000000000016 15.492,9.57000000000016 15.394,10.0189999999998 C15.394,10.0189999999998 16.546,10.0189999999998 16.546,10.0189999999998 C16.546,10.0189999999998 16.546,10.0189999999998 16.546,10.0189999999998 ZM17.307,11.3670000000002 C16.932,11.5390000000002 16.595,11.6149999999998 16.222,11.6149999999998 C15.615,11.6149999999998 15.245,11.377 15.316,10.8099999999999 C15.316,10.8099999999999 17.3920000000001,10.8099999999999 17.3920000000001,10.8099999999999 C17.482,10.4140000000002 17.52,10.1350000000002 17.52,9.84700000000021 C17.52,8.98000000000002 16.972,8.42999999999984 16.111,8.42999999999984 C15.061,8.42999999999984 14.287,9.41499999999996 14.287,10.7530000000002 C14.287,11.9000000000001 14.896,12.4989999999998 16.063,12.5010000000002 C16.429,12.502 16.774,12.4490000000001 17.1319999999999,12.3409999999999 C17.1319999999999,12.3409999999999 17.307,11.3670000000002 17.307,11.3670000000002 C17.307,11.3670000000002 17.307,11.3670000000002 17.307,11.3670000000002 ZM13.926,11.5070000000001 C13.855,11.5309999999999 13.763,11.5419999999999 13.643,11.5419999999999 C13.394,11.5419999999999 13.284,11.4540000000002 13.284,11.2539999999999 C13.2859999999999,11.1300000000001 13.4589999999999,10.203 13.581,9.45800000000008 C13.581,9.45800000000008 14.116,9.45800000000008 14.116,9.45800000000008 C14.116,9.45800000000008 14.259,8.51600000000008 14.259,8.51600000000008 C14.259,8.51600000000008 13.724,8.51600000000008 13.724,8.51600000000008 C13.724,8.51600000000008 13.845,7.92399999999998 13.845,7.92399999999998 C13.845,7.92399999999998 12.803,7.92399999999998 12.803,7.92399999999998 C12.803,7.92399999999998 12.409,10.23 12.349,10.5970000000002 C12.282,11.0129999999999 12.197,11.4670000000001 12.204,11.6410000000001 C12.204,12.1970000000001 12.497,12.5010000000002 13.033,12.5010000000002 C13.276,12.5010000000002 13.5,12.462 13.7859999999999,12.373 C13.7859999999999,12.373 13.926,11.5070000000001 13.926,11.5070000000001 C13.926,11.5070000000001 13.926,11.5070000000001 13.926,11.5070000000001 ZM26.567,10.3530000000001 C26.62,10.0259999999998 26.655,9.77799999999979 26.653,9.57700000000023 C26.653,8.82700000000023 26.177,8.42999999999984 25.276,8.42999999999984 C24.888,8.42999999999984 24.543,8.48599999999988 24.021,8.63700000000017 C24.021,8.63700000000017 23.886,9.45200000000023 23.876,9.51699999999983 C24.051,9.46099999999979 24.473,9.33599999999979 24.986,9.34099999999989 C25.476,9.34099999999989 25.658,9.4369999999999 25.658,9.69700000000012 C25.658,9.76600000000008 25.649,9.82299999999987 25.6180000000001,9.95100000000002 C25.461,9.93100000000004 25.309,9.92099999999982 25.1900000000001,9.92099999999982 C24.026,9.92099999999982 23.349,10.4749999999999 23.349,11.4299999999998 C23.349,12.0639999999999 23.7380000000001,12.5010000000002 24.306,12.5010000000002 C24.7859999999999,12.5010000000002 25.141,12.3470000000002 25.4059999999999,12.027 C25.4059999999999,12.027 25.385,12.4319999999998 25.385,12.4319999999998 C25.385,12.4319999999998 26.115,12.4319999999998 26.254,12.4319999999998 C26.282,12.1370000000002 26.477,10.9189999999999 26.567,10.3530000000001 C26.567,10.3530000000001 26.567,10.3530000000001 26.567,10.3530000000001 ZM25.492,10.6880000000001 C25.3819999999999,10.6759999999999 25.3339999999999,10.672 25.258,10.672 C24.664,10.672 24.3630000000001,10.8719999999998 24.3630000000001,11.2669999999998 C24.3630000000001,11.5120000000002 24.509,11.6669999999999 24.739,11.6669999999999 C25.165,11.6669999999999 25.474,11.2669999999998 25.492,10.6880000000001 C25.492,10.6880000000001 25.492,10.6880000000001 25.492,10.6880000000001 ZM22.47,7.49800000000005 C21.08,7.49800000000005 20.1079999999999,8.69900000000007 20.1079999999999,10.4209999999998 C20.1079999999999,11.703 20.811,12.5010000000002 21.9400000000001,12.5010000000002 C22.231,12.5010000000002 22.481,12.462 22.867,12.3580000000002 C22.867,12.3580000000002 23.051,11.2600000000002 23.051,11.2600000000002 C22.703,11.4299999999998 22.418,11.5079999999998 22.16,11.5079999999998 C21.551,11.5079999999998 21.182,11.067 21.182,10.3359999999998 C21.182,9.27700000000004 21.73,8.53200000000015 22.513,8.53200000000015 C22.8049999999999,8.53200000000015 23.076,8.60699999999997 23.451,8.79199999999992 C23.451,8.79199999999992 23.622,7.74600000000009 23.622,7.74600000000009 C23.468,7.68899999999985 22.928,7.49800000000005 22.47,7.49800000000005 C22.47,7.49800000000005 22.47,7.49800000000005 22.47,7.49800000000005 ZM9.08399999999995,10.3530000000001 C9.13599999999997,10.0259999999998 9.16999999999996,9.77799999999979 9.16899999999998,9.57700000000023 C9.16999999999996,8.82700000000023 8.69299999999998,8.42999999999984 7.79200000000003,8.42999999999984 C7.40499999999997,8.42999999999984 7.05999999999995,8.48599999999988 6.53700000000003,8.63700000000017 C6.53700000000003,8.63700000000017 6.40300000000002,9.45200000000023 6.39200000000005,9.51699999999983 C6.56600000000003,9.46099999999979 6.99000000000001,9.33599999999979 7.50099999999998,9.34099999999989 C7.99199999999996,9.34099999999989 8.17399999999998,9.4369999999999 8.17399999999998,9.69700000000012 C8.17399999999998,9.76600000000008 8.16600000000005,9.82299999999987 8.13400000000001,9.95100000000002 C7.97699999999998,9.93100000000004 7.82399999999996,9.92099999999982 7.70600000000002,9.92099999999982 C6.54300000000001,9.92099999999982 5.86500000000001,10.4749999999999 5.86500000000001,11.4299999999998 C5.86500000000001,12.0639999999999 6.255,12.5010000000002 6.82299999999998,12.5010000000002 C7.303,12.5010000000002 7.65700000000004,12.3470000000002 7.92200000000003,12.027 C7.92200000000003,12.027 7.90200000000004,12.4319999999998 7.90200000000004,12.4319999999998 C7.90200000000004,12.4319999999998 8.63099999999997,12.4319999999998 8.77099999999996,12.4319999999998 C8.798,12.1370000000002 8.99400000000003,10.9189999999999 9.08399999999995,10.3530000000001 C9.08399999999995,10.3530000000001 9.08399999999995,10.3530000000001 9.08399999999995,10.3530000000001 ZM8.00800000000004,10.6880000000001 C7.89800000000002,10.6759999999999 7.84900000000005,10.672 7.774,10.672 C7.17999999999995,10.672 6.87900000000002,10.8719999999998 6.87900000000002,11.2669999999998 C6.87900000000002,11.5120000000002 7.02599999999995,11.6669999999999 7.255,11.6669999999999 C7.68200000000002,11.6669999999999 7.99000000000001,11.2669999999998 8.00800000000004,10.6880000000001 C8.00800000000004,10.6880000000001 8.00800000000004,10.6880000000001 8.00800000000004,10.6880000000001 ZM6.05799999999999,7.61799999999994 C6.05799999999999,7.61799999999994 4.42999999999995,7.61799999999994 4.42999999999995,7.61799999999994 C4.42999999999995,7.61799999999994 3.41200000000003,10.598 3.41200000000003,10.598 C3.41200000000003,10.598 3.37,7.61799999999994 3.37,7.61799999999994 C3.37,7.61799999999994 1.86199999999997,7.61799999999994 1.86199999999997,7.61799999999994 C1.86199999999997,7.61799999999994 1.04300000000001,12.4319999999998 1.04300000000001,12.4319999999998 C1.04300000000001,12.4319999999998 2.024,12.4319999999998 2.024,12.4319999999998 C2.024,12.4319999999998 2.65599999999995,8.75199999999995 2.65599999999995,8.75199999999995 C2.65599999999995,8.75199999999995 2.74400000000003,12.4319999999998 2.74400000000003,12.4319999999998 C2.74400000000003,12.4319999999998 3.45799999999997,12.4319999999998 3.45799999999997,12.4319999999998 C3.45799999999997,12.4319999999998 4.79999999999995,8.73100000000022 4.79999999999995,8.73100000000022 C4.79999999999995,8.73100000000022 4.19799999999998,12.4319999999998 4.19799999999998,12.4319999999998 C4.19799999999998,12.4319999999998 5.24800000000005,12.4319999999998 5.24800000000005,12.4319999999998 C5.24800000000005,12.4319999999998 6.05799999999999,7.61799999999994 6.05799999999999,7.61799999999994 C6.05799999999999,7.61799999999994 6.05799999999999,7.61799999999994 6.05799999999999,7.61799999999994 ZM33.994,9.99800000000005 C33.994,15.5169999999998 29.441,19.9920000000002 23.825,19.9920000000002 C21.525,19.9920000000002 19.402,19.2399999999998 17.698,17.9740000000002 C17.698,17.9740000000002 17.698,17.9740000000002 17.699,17.9740000000002 C19.13,16.6689999999999 20.207,15 20.782,13.1170000000002 C20.782,13.1170000000002 19.836,13.1170000000002 19.836,13.1170000000002 C19.28,14.7829999999999 18.2910000000001,16.2559999999999 17,17.4059999999999 C15.7089999999999,16.2559999999999 14.72,14.7829999999999 14.164,13.1170000000002 C14.164,13.1170000000002 13.218,13.1170000000002 13.218,13.1170000000002 C13.792,15 14.871,16.6689999999999 16.3,17.9740000000002 C16.3,17.9740000000002 16.3,17.9740000000002 16.3,17.9740000000002 C14.597,19.2399999999998 12.475,19.9920000000002 10.174,19.9920000000002 C4.55799999999999,19.9920000000002 0.00599999999997,15.5169999999998 0.00599999999997,9.99800000000005 C0.00599999999997,4.48100000000022 4.55799999999999,0.00700000000006 10.174,0.00700000000006 C12.475,0.00700000000006 14.597,0.75700000000006 16.3,2.02399999999989 C16.3,2.02399999999989 16.3,2.02399999999989 16.3,2.02399999999989 C14.7809999999999,3.40999999999985 13.655,5.20899999999983 13.115,7.23799999999983 C13.115,7.23799999999983 14.051,7.23799999999983 14.051,7.23799999999983 C14.58,5.42599999999993 15.616,3.82499999999982 17,2.59299999999985 C18.383,3.82499999999982 19.42,5.42599999999993 19.95,7.23799999999983 C19.95,7.23799999999983 20.886,7.23799999999983 20.886,7.23799999999983 C20.3440000000001,5.20899999999983 19.2190000000001,3.40999999999985 17.699,2.02399999999989 C17.698,2.02399999999989 17.698,2.02399999999989 17.698,2.02399999999989 C19.402,0.75700000000006 21.525,0.00700000000006 23.825,0.00700000000006 C29.441,0.00700000000006 33.994,4.48100000000022 33.994,9.99800000000005 C33.994,9.99800000000005 33.994,9.99800000000005 33.994,9.99800000000005 Z "/></svg>