<?xml version="1.0" encoding="utf-8"?><!DOCTYPE svg PUBLIC "-//W3C//DTD SVG 1.1//EN" "http://www.w3.org/Graphics/SVG/1.1/DTD/svg11.dtd"><svg version="1.1" baseProfile="full" xmlns="http://www.w3.org/2000/svg" xmlns:xlink="http://www.w3.org/1999/xlink" xmlns:ev="http://www.w3.org/2001/xml-events"   height="18px"   width="13px" ><path fill="rgb( 255, 255, 255 )" d="M13,7.62300000000005 C13,3.96199999999999 10.0890000000001,0.99399999999991 6.5,0.99399999999991 C2.90999999999997,0.99399999999991 0,3.96199999999999 0,7.62300000000005 C0,7.73900000000003 0.01099999999997,7.85200000000009 0.01700000000005,7.96499999999992 C0.01099999999997,8.02099999999996 0,8.07600000000002 0,8.13300000000004 C0,12.213 6,16.8340000000001 6,16.8340000000001 C6,16.8340000000001 6.5,17.2170000000001 6.99900000000002,16.8340000000001 C7.49900000000002,16.452 13,12.213 13,8.13300000000004 C13,8.07600000000002 12.9880000000001,8.02099999999996 12.982,7.96499999999992 C12.9880000000001,7.85200000000009 13,7.73900000000003 13,7.62300000000005 ZM6.5,10.173 C5.11900000000003,10.173 4,9.03199999999993 4,7.62300000000005 C4,6.21499999999992 5.11900000000003,5.07300000000009 6.5,5.07300000000009 C7.88,5.07300000000009 8.99900000000002,6.21499999999992 8.99900000000002,7.62300000000005 C8.99900000000002,9.03199999999993 7.88,10.173 6.5,10.173 Z "/></svg>