<?xml version="1.0" encoding="utf-8"?><!DOCTYPE svg PUBLIC "-//W3C//DTD SVG 1.1//EN" "http://www.w3.org/Graphics/SVG/1.1/DTD/svg11.dtd"><svg version="1.1" baseProfile="full" xmlns="http://www.w3.org/2000/svg" xmlns:xlink="http://www.w3.org/1999/xlink" xmlns:ev="http://www.w3.org/2001/xml-events"   height="15px"   width="16px" ><path fill="rgb( 205, 205, 205 )" d="M16,4.99900000000002 C16,5.23000000000002 15.908,5.43299999999999 15.776,5.60299999999995 C15.776,5.60299999999995 15.789,5.61300000000006 15.789,5.61300000000006 C15.789,5.61300000000006 8.789,14.6130000000001 8.789,14.6130000000001 C8.789,14.6130000000001 8.776,14.603 8.776,14.603 C8.59399999999999,14.838 8.321,14.999 8,14.999 C7.679,14.999 7.40600000000001,14.838 7.223,14.603 C7.223,14.603 7.211,14.6130000000001 7.211,14.6130000000001 C7.211,14.6130000000001 0.211,5.61300000000006 0.211,5.61300000000006 C0.211,5.61300000000006 0.223,5.60299999999995 0.223,5.60299999999995 C0.09099999999999,5.43299999999999 0,5.23000000000002 0,4.99900000000002 C0,4.72299999999996 0.11199999999999,4.47299999999996 0.29300000000001,4.29200000000003 C0.29300000000001,4.29200000000003 0.29300000000001,4.29200000000003 0.29300000000001,4.29200000000003 C0.29300000000001,4.29200000000003 3.29300000000001,1.29200000000003 3.29300000000001,1.29200000000003 C3.29300000000001,1.29200000000003 3.29300000000001,1.29200000000003 3.29300000000001,1.29200000000003 C3.474,1.11099999999999 3.724,0.99900000000002 4,0.99900000000002 C4,0.99900000000002 12,0.99900000000002 12,0.99900000000002 C12.276,0.99900000000002 12.526,1.11099999999999 12.707,1.29200000000003 C12.707,1.29200000000003 12.707,1.29200000000003 12.707,1.29200000000003 C12.707,1.29200000000003 15.707,4.29200000000003 15.707,4.29200000000003 C15.707,4.29200000000003 15.707,4.29200000000003 15.707,4.29200000000003 C15.888,4.47299999999996 16,4.72299999999996 16,4.99900000000002 ZM11.586,2.99900000000002 C11.586,2.99900000000002 4.414,2.99900000000002 4.414,2.99900000000002 C4.414,2.99900000000002 2.331,5.08199999999999 2.331,5.08199999999999 C2.331,5.08199999999999 8,12.37 8,12.37 C8,12.37 13.669,5.08199999999999 13.669,5.08199999999999 C13.669,5.08199999999999 11.586,2.99900000000002 11.586,2.99900000000002 Z "/></svg>