<?xml version="1.0" encoding="utf-8"?><!DOCTYPE svg PUBLIC "-//W3C//DTD SVG 1.1//EN" "http://www.w3.org/Graphics/SVG/1.1/DTD/svg11.dtd"><svg version="1.1" baseProfile="full" xmlns="http://www.w3.org/2000/svg" xmlns:xlink="http://www.w3.org/1999/xlink" xmlns:ev="http://www.w3.org/2001/xml-events"   height="14px"   width="43px" ><path fill="rgb( 101, 101, 101 )" d="M39.461,13.355 C39.461,13.355 39.15,11.846 39.049,11.3890000000001 C38.5549999999999,11.3890000000001 35.101,11.3820000000001 34.713,11.3820000000001 C34.582,11.7370000000001 34.002,13.355 34.002,13.355 C34.002,13.355 30.4450000000001,13.355 30.4450000000001,13.355 C30.4450000000001,13.355 35.473,1.32900000000018 35.473,1.32900000000018 C35.828,0.47400000000016 36.436,0.24200000000019 37.248,0.24200000000019 C37.248,0.24200000000019 39.864,0.24200000000019 39.864,0.24200000000019 C39.864,0.24200000000019 42.603,13.355 42.603,13.355 C42.603,13.355 39.461,13.355 39.461,13.355 ZM37.7140000000001,4.90999999999985 C37.7140000000001,4.90999999999985 37.485,3.779 37.485,3.779 C37.314,4.26999999999998 37.016,5.06500000000005 37.0359999999999,5.0300000000002 C37.0359999999999,5.0300000000002 35.968,7.94300000000021 35.687,8.69799999999987 C36.349,8.69799999999987 37.971,8.69799999999987 38.498,8.69799999999987 C38.3630000000001,8.04199999999992 37.7140000000001,4.90999999999985 37.7140000000001,4.90999999999985 ZM30.417,3.24499999999989 C29.792,2.97899999999981 28.991,2.72299999999996 27.884,2.74099999999999 C26.558,2.74099999999999 25.9450000000001,3.32499999999982 25.944,3.86999999999989 C25.936,4.48599999999988 26.662,4.88900000000012 27.845,5.49800000000005 C29.799,6.4340000000002 30.7,7.56700000000001 30.689,9.0630000000001 C30.662,11.7860000000001 28.35,13.5450000000001 24.793,13.5450000000001 C23.274,13.5279999999998 21.811,13.2109999999998 21.021,12.846 C21.021,12.846 21.495,9.90900000000011 21.495,9.90900000000011 C21.495,9.90900000000011 21.9299999999999,10.1170000000002 21.9299999999999,10.1170000000002 C23.044,10.607 23.764,10.806 25.119,10.806 C26.093,10.806 27.136,10.4029999999998 27.145,9.52399999999989 C27.151,8.94999999999982 26.707,8.53900000000021 25.388,7.89600000000019 C24.105,7.26899999999978 22.402,6.2170000000001 22.423,4.33100000000013 C22.443,1.78099999999995 24.799,0 28.146,0 C29.457,0 30.51,0.28699999999981 31.1799999999999,0.55099999999993 C31.1799999999999,0.55099999999993 30.721,3.39499999999998 30.721,3.39499999999998 C30.721,3.39499999999998 30.417,3.24499999999989 30.417,3.24499999999989 ZM15.515,13.3510000000001 C15.515,13.3510000000001 17.6319999999999,0.22899999999981 17.6319999999999,0.22899999999981 C17.6319999999999,0.22899999999981 21.018,0.22899999999981 21.018,0.22899999999981 C21.018,0.22899999999981 18.9,13.3510000000001 18.9,13.3510000000001 C18.9,13.3510000000001 15.515,13.3510000000001 15.515,13.3510000000001 ZM7.34799999999996,13.3389999999999 C7.34799999999996,13.3389999999999 4.59100000000001,2.90200000000004 4.59100000000001,2.90200000000004 C6.55200000000002,3.70800000000008 8.29600000000005,5.46000000000004 9.00599999999997,7.36799999999994 C9.00599999999997,7.36799999999994 9.36099999999999,9.18600000000015 9.36099999999999,9.18600000000015 C9.36099999999999,9.18600000000015 12.675,0.23999999999978 12.675,0.23999999999978 C12.675,0.23999999999978 16.2619999999999,0.23999999999978 16.2619999999999,0.23999999999978 C16.2619999999999,0.23999999999978 10.931,13.337 10.931,13.337 C10.931,13.337 7.34799999999996,13.3389999999999 7.34799999999996,13.3389999999999 ZM0.78099999999995,0.50199999999995 C0.78099999999995,0.50199999999995 0.827,0.23100000000022 0.827,0.23100000000022 C0.827,0.23100000000022 6.28499999999997,0.23100000000022 6.28499999999997,0.23100000000022 C7.02099999999996,0.26000000000022 7.61599999999999,0.50599999999986 7.82000000000005,1.33800000000019 C7.82000000000005,1.33800000000019 9.00599999999997,7.36700000000019 9.00599999999997,7.36700000000019 C7.61199999999997,3.49600000000009 4.53700000000003,1.44900000000007 0.78099999999995,0.50199999999995 Z "/></svg>