<?xml version="1.0" encoding="utf-8"?><!DOCTYPE svg PUBLIC "-//W3C//DTD SVG 1.1//EN" "http://www.w3.org/Graphics/SVG/1.1/DTD/svg11.dtd"><svg version="1.1" baseProfile="full" xmlns="http://www.w3.org/2000/svg" xmlns:xlink="http://www.w3.org/1999/xlink" xmlns:ev="http://www.w3.org/2001/xml-events"   height="16px"   width="58px" ><path fill="rgb( 101, 101, 101 )" d="M55.654,12.1039999999998 C55.624,12.2559999999999 55.624,12.4180000000001 55.546,12.5549999999998 C55.443,12.7469999999998 55.2329999999999,12.877 55.014,12.8780000000002 C54.39,12.8780000000002 53.7670000000001,12.8789999999999 53.1420000000001,12.877 C52.927,12.8780000000002 52.749,12.6610000000001 52.787,12.451 C53.395,8.58300000000008 54.005,4.71599999999989 54.612,0.84700000000021 C54.626,0.66800000000012 54.7809999999999,0.51000000000022 54.963,0.50399999999991 C55.659,0.4989999999998 56.356,0.50300000000016 57.052,0.50199999999995 C57.28,0.5010000000002 57.467,0.73100000000022 57.415,0.95400000000018 C56.828,4.67099999999982 56.239,8.38700000000017 55.654,12.1039999999998 ZM51.351,12.1819999999998 C51.332,12.2860000000001 51.326,12.395 51.285,12.4940000000001 C51.194,12.723 50.958,12.8820000000001 50.712,12.8780000000002 C50.0700000000001,12.8780000000002 49.428,12.8780000000002 48.7859999999999,12.8780000000002 C48.612,12.884 48.451,12.7510000000002 48.419,12.5819999999999 C48.396,12.5059999999999 48.418,12.4290000000001 48.429,12.3539999999998 C48.456,12.1909999999998 48.48,12.027 48.51,11.8649999999998 C48.231,12.1640000000002 47.889,12.4009999999998 47.529,12.5940000000001 C46.99,12.8800000000001 46.385,13.0419999999999 45.775,13.0700000000002 C45.256,13.0929999999998 44.731,13.0439999999999 44.235,12.8879999999999 C43.8,12.752 43.3920000000001,12.5210000000002 43.067,12.1999999999998 C42.585,11.7370000000001 42.269,11.1170000000002 42.121,10.4679999999998 C41.954,9.75 41.989,8.99499999999989 42.1609999999999,8.28099999999995 C42.448,7.05299999999988 43.1900000000001,5.92700000000013 44.242,5.22200000000021 C44.722,4.89600000000019 45.263,4.66199999999981 45.828,4.53400000000011 C46.437,4.39399999999978 47.071,4.39600000000019 47.688,4.47800000000007 C48.186,4.55200000000013 48.6950000000001,4.69500000000016 49.092,5.01899999999978 C49.266,5.1550000000002 49.381,5.34400000000005 49.511,5.51899999999978 C49.5410000000001,5.32299999999987 49.5700000000001,5.12800000000016 49.603,4.93299999999999 C49.627,4.75799999999981 49.794,4.61799999999994 49.971,4.6239999999998 C50.684,4.6239999999998 51.398,4.6239999999998 52.112,4.6239999999998 C52.2670000000001,4.62100000000009 52.4160000000001,4.73000000000002 52.463,4.87899999999991 C52.5,4.98199999999997 52.4690000000001,5.0920000000001 52.455,5.19599999999991 C52.086,7.52500000000009 51.72,9.85399999999981 51.351,12.1819999999998 ZM49.103,7.9380000000001 C49.011,7.54799999999977 48.77,7.19200000000001 48.429,6.97699999999986 C47.995,6.69999999999982 47.453,6.64899999999989 46.952,6.72200000000021 C46.448,6.80000000000018 45.971,7.04399999999987 45.616,7.41100000000006 C45.251,7.78499999999985 45.021,8.28200000000015 44.952,8.79799999999977 C44.8819999999999,9.25399999999991 44.949,9.74800000000005 45.218,10.1309999999999 C45.466,10.4899999999998 45.879,10.7060000000001 46.304,10.7730000000001 C46.879,10.8670000000002 47.49,10.768 47.994,10.471 C48.397,10.2339999999999 48.723,9.86999999999989 48.92,9.44700000000012 C49.134,8.98000000000002 49.227,8.44300000000021 49.103,7.9380000000001 ZM41.968,6.50900000000001 C41.64,7.11700000000019 41.157,7.64600000000019 40.568,8.01099999999997 C39.891,8.43499999999995 39.1,8.64399999999978 38.3099999999999,8.71900000000005 C37.826,8.76999999999998 37.3390000000001,8.74600000000009 36.855,8.7510000000002 C36.6,8.75399999999991 36.345,8.74499999999989 36.091,8.75599999999986 C35.8150000000001,8.76699999999983 35.564,8.98700000000008 35.519,9.25900000000001 C35.354,10.2919999999999 35.192,11.326 35.028,12.3600000000001 C35.011,12.4549999999999 35.008,12.556 34.962,12.643 C34.8920000000001,12.7829999999999 34.741,12.877 34.585,12.877 C33.8630000000001,12.8789999999999 33.1420000000001,12.877 32.421,12.8780000000002 C32.317,12.8780000000002 32.206,12.8879999999999 32.111,12.837 C31.963,12.7629999999999 31.8819999999999,12.585 31.917,12.4229999999998 C32.505,8.71300000000019 33.09,5.00300000000016 33.675,1.29300000000012 C33.701,1.15599999999995 33.706,1.01499999999987 33.7569999999999,0.88500000000022 C33.833,0.69999999999982 34.005,0.56100000000015 34.2,0.51600000000008 C34.397,0.48700000000008 34.597,0.50799999999981 34.796,0.5010000000002 C35.9299999999999,0.50199999999995 37.0650000000001,0.5010000000002 38.199,0.5010000000002 C38.711,0.50399999999991 39.226,0.48900000000003 39.735,0.5630000000001 C40.433,0.65599999999995 41.138,0.86700000000019 41.697,1.31100000000015 C42.0359999999999,1.57900000000018 42.301,1.94000000000005 42.46,2.3420000000001 C42.711,2.96900000000005 42.721,3.66499999999996 42.6369999999999,4.32799999999997 C42.533,5.08300000000008 42.337,5.83599999999979 41.968,6.50900000000001 ZM38.995,3.35199999999986 C38.774,3.15299999999979 38.476,3.07099999999991 38.188,3.0300000000002 C37.737,2.96799999999985 37.2809999999999,2.98799999999983 36.827,2.98399999999992 C36.672,2.98000000000002 36.525,3.08500000000004 36.476,3.23199999999997 C36.454,3.30499999999984 36.446,3.38200000000006 36.434,3.45699999999988 C36.2859999999999,4.39499999999998 36.136,5.33300000000008 35.989,6.27199999999993 C36.611,6.26200000000017 37.24,6.30699999999979 37.857,6.20499999999993 C38.255,6.13799999999992 38.6559999999999,5.9699999999998 38.912,5.64600000000019 C39.2140000000001,5.26899999999978 39.313,4.77300000000014 39.3339999999999,4.30099999999993 C39.347,3.95899999999983 39.2619999999999,3.58500000000004 38.995,3.35199999999986 ZM24.8630000000001,15.5010000000002 C24.779,15.6120000000001 24.659,15.7190000000001 24.514,15.7269999999999 C24.532,15.7350000000001 24.568,15.752 24.586,15.7600000000002 C23.754,15.7629999999999 22.922,15.7669999999998 22.09,15.759 C22.028,15.712 21.954,15.6790000000001 21.91,15.6129999999998 C21.813,15.4830000000002 21.811,15.2910000000002 21.91,15.163 C22.534,14.2829999999999 23.159,13.4029999999998 23.782,12.5230000000001 C23.897,12.366 24.004,12.203 24.123,12.0479999999998 C23.777,11.0050000000001 23.414,9.9670000000001 23.063,8.92599999999993 C22.645,7.69999999999982 22.227,6.47600000000011 21.8099999999999,5.25 C21.775,5.14899999999989 21.726,5.04399999999987 21.75,4.93499999999995 C21.775,4.76800000000003 21.928,4.62800000000016 22.099,4.6239999999998 C22.812,4.6239999999998 23.525,4.6239999999998 24.2380000000001,4.6239999999998 C24.5069999999999,4.62100000000009 24.76,4.81899999999996 24.829,5.07799999999997 C25.244,6.46599999999989 25.6609999999999,7.85300000000007 26.076,9.24099999999999 C27.057,7.79700000000003 28.039,6.35399999999981 29.019,4.90999999999985 C29.14,4.71799999999985 29.369,4.60699999999997 29.595,4.6239999999998 C30.2910000000001,4.625 30.9880000000001,4.6239999999998 31.684,4.6239999999998 C31.768,4.62100000000009 31.852,4.64699999999993 31.919,4.69900000000007 C32.072,4.81100000000015 32.112,5.04700000000003 32.004,5.20299999999997 C29.625,8.63700000000017 27.244,12.069 24.8630000000001,15.5010000000002 ZM19.546,12.3409999999999 C19.519,12.5599999999999 19.365,12.7539999999999 19.1609999999999,12.8339999999998 C19.038,12.8850000000002 18.902,12.8789999999999 18.772,12.8780000000002 C18.174,12.877 17.577,12.8800000000001 16.979,12.8760000000002 C16.778,12.8699999999999 16.61,12.6750000000002 16.633,12.4760000000001 C16.6559999999999,12.2759999999998 16.704,12.0799999999999 16.718,11.8789999999999 C15.992,12.6179999999999 14.966,13.0390000000002 13.9349999999999,13.0729999999999 C13.436,13.087 12.931,13.0390000000002 12.454,12.8879999999999 C12.026,12.7539999999999 11.624,12.5259999999998 11.301,12.2130000000002 C10.9589999999999,11.8879999999999 10.699,11.4839999999999 10.523,11.049 C10.272,10.4250000000002 10.192,9.73999999999978 10.251,9.07299999999987 C10.346,8.02300000000014 10.7430000000001,6.99499999999989 11.415,6.17900000000009 C11.994,5.46900000000005 12.776,4.92200000000003 13.651,4.64300000000003 C14.356,4.40900000000011 15.114,4.37800000000016 15.847,4.4699999999998 C16.373,4.54100000000017 16.915,4.68600000000015 17.328,5.03400000000011 C17.494,5.16800000000012 17.607,5.34999999999991 17.731,5.52100000000019 C17.7619999999999,5.32499999999982 17.7910000000001,5.12899999999991 17.824,4.93299999999999 C17.848,4.75900000000001 18.016,4.61900000000014 18.191,4.6239999999998 C18.905,4.6239999999998 19.6180000000001,4.6239999999998 20.332,4.6239999999998 C20.486,4.62199999999984 20.634,4.72899999999981 20.682,4.875 C20.718,4.97200000000021 20.694,5.07600000000002 20.678,5.17500000000018 C20.3,7.56399999999985 19.925,9.95299999999997 19.546,12.3409999999999 ZM17.306,7.87300000000005 C17.198,7.47699999999986 16.929,7.1260000000002 16.568,6.92799999999988 C16.147,6.69399999999996 15.643,6.65299999999979 15.174,6.72200000000021 C14.675,6.79899999999998 14.203,7.03699999999981 13.849,7.39699999999993 C13.492,7.75799999999981 13.2619999999999,8.23500000000013 13.182,8.73399999999992 C13.101,9.19200000000001 13.151,9.69000000000005 13.408,10.0859999999998 C13.628,10.431 13.999,10.6599999999999 14.394,10.7469999999998 C14.9930000000001,10.8809999999999 15.644,10.7939999999999 16.1799999999999,10.491 C16.5940000000001,10.2570000000001 16.9299999999999,9.89100000000008 17.133,9.46199999999999 C17.362,8.97200000000021 17.458,8.40000000000009 17.306,7.87300000000005 ZM9.76599999999996,7.14300000000003 C9.42399999999998,7.56899999999996 8.99099999999999,7.92200000000003 8.505,8.17200000000003 C7.774,8.55200000000013 6.94799999999998,8.71099999999979 6.13,8.74600000000009 C5.53300000000002,8.75900000000001 4.93600000000004,8.74499999999989 4.33799999999997,8.75300000000016 C4.13400000000001,8.75700000000006 3.93600000000004,8.86499999999978 3.82600000000002,9.03800000000001 C3.74000000000001,9.16499999999996 3.72900000000004,9.32099999999991 3.70500000000004,9.46799999999985 C3.55200000000002,10.4369999999999 3.39999999999998,11.4059999999999 3.24599999999998,12.375 C3.19799999999998,12.6570000000002 2.93299999999999,12.8800000000001 2.64599999999996,12.8780000000002 C1.93399999999997,12.8780000000002 1.22199999999998,12.8780000000002 0.50900000000001,12.8780000000002 C0.351,12.8829999999998 0.20100000000002,12.7739999999999 0.15099999999995,12.625 C0.09500000000003,12.4699999999998 0.16999999999996,12.3119999999999 0.17999999999995,12.1559999999999 C0.76499999999999,8.45699999999988 1.34799999999996,4.75799999999981 1.93299999999999,1.0590000000002 C1.95600000000002,0.76699999999983 2.22199999999998,0.51299999999992 2.51499999999999,0.50599999999986 C4.01999999999998,0.49400000000014 5.524,0.50399999999991 7.02800000000002,0.5010000000002 C7.57399999999996,0.50399999999991 8.12,0.55999999999995 8.64800000000002,0.69999999999982 C9.12599999999998,0.82900000000018 9.59199999999998,1.03499999999985 9.97199999999998,1.35699999999997 C10.357,1.67700000000013 10.6319999999999,2.12100000000009 10.769,2.60100000000011 C10.953,3.23799999999983 10.928,3.91699999999992 10.821,4.5659999999998 C10.671,5.48799999999983 10.359,6.40900000000011 9.76599999999996,7.14300000000003 ZM7.48699999999997,3.77199999999993 C7.41200000000003,3.53699999999981 7.24400000000003,3.33599999999979 7.02700000000004,3.21799999999985 C6.77200000000005,3.07799999999997 6.48000000000002,3.0300000000002 6.19299999999998,3.00500000000011 C5.81299999999999,2.97600000000011 5.43100000000004,2.98599999999988 5.04999999999995,2.98399999999992 C4.91399999999999,2.98000000000002 4.78300000000002,3.0590000000002 4.72000000000003,3.17799999999988 C4.67700000000002,3.25500000000011 4.673,3.34400000000005 4.65800000000002,3.42900000000009 C4.50900000000001,4.37699999999995 4.35900000000004,5.32400000000007 4.20799999999997,6.27199999999993 C4.69899999999996,6.26699999999983 5.19100000000003,6.28600000000006 5.68100000000004,6.25300000000016 C6.11699999999996,6.221 6.57399999999996,6.13400000000001 6.923,5.85399999999981 C7.24800000000005,5.59900000000016 7.42100000000005,5.20100000000002 7.49699999999996,4.80499999999984 C7.55999999999995,4.46500000000015 7.59400000000005,4.10600000000022 7.48699999999997,3.77199999999993 Z "/></svg>