<?xml version="1.0" encoding="utf-8"?><!DOCTYPE svg PUBLIC "-//W3C//DTD SVG 1.1//EN" "http://www.w3.org/Graphics/SVG/1.1/DTD/svg11.dtd"><svg version="1.1" baseProfile="full" xmlns="http://www.w3.org/2000/svg" xmlns:xlink="http://www.w3.org/1999/xlink" xmlns:ev="http://www.w3.org/2001/xml-events"   height="16px"   width="14px" ><path fill="rgb( 34, 34, 34 )" d="M12.999,15.999 C12.447,15.999 12,15.551 12,14.999 C12,13.561 11.384,12.275 10.413,11.362 C9.51800000000003,12.37 8.32299999999998,12.999 6.99900000000002,12.999 C5.67600000000004,12.999 4.48099999999999,12.37 3.58600000000001,11.362 C2.61500000000001,12.275 2,13.561 2,14.999 C2,14.999 2,14.999 2,14.999 C2,15.551 1.55200000000002,15.999 0.99900000000002,15.999 C0.447,15.999 0,15.551 0,14.999 C0,12.84 0.99800000000005,10.933 2.53499999999997,9.649 C2.20299999999997,8.847 2,7.955 2,6.999 C2,3.686 4.23800000000006,0.999 6.99900000000002,0.999 C9.76099999999997,0.999 12,3.686 12,6.999 C12,7.955 11.796,8.847 11.4640000000001,9.649 C13.001,10.933 13.999,12.84 13.999,14.999 C13.999,14.999 13.999,14.999 13.999,14.999 C13.999,15.551 13.552,15.999 12.999,15.999 ZM6.99900000000002,2.999 C5.34299999999996,2.999 3.99900000000002,4.79 3.99900000000002,6.999 C3.99900000000002,9.208 5.34299999999996,10.999 6.99900000000002,10.999 C8.65599999999995,10.999 9.99900000000002,9.208 9.99900000000002,6.999 C9.99900000000002,4.79 8.65599999999995,2.999 6.99900000000002,2.999 Z "/></svg>