<?xml version="1.0" encoding="utf-8"?><!DOCTYPE svg PUBLIC "-//W3C//DTD SVG 1.1//EN" "http://www.w3.org/Graphics/SVG/1.1/DTD/svg11.dtd"><svg version="1.1" baseProfile="full" xmlns="http://www.w3.org/2000/svg" xmlns:xlink="http://www.w3.org/1999/xlink" xmlns:ev="http://www.w3.org/2001/xml-events"   height="17px"   width="29px" ><path fill="rgb( 255, 193, 43 )" d="M28.194,9.87400000000002 C28.194,9.87400000000002 22.694,15.217 22.694,15.217 C21.97,15.92 20.912,16.162 19.946,15.875 C19.642,15.949 19.328,16 19,16 C19,16 4,16 4,16 C1.791,16 0,14.2089999999999 0,12 C0,12 0,5 0,5 C0,2.79100000000005 1.791,1 4,1 C4,1 19,1 19,1 C19.31,1 19.609,1.04300000000001 19.899,1.11000000000001 C20.877,0.80100000000004 21.958,1.03999999999996 22.694,1.75300000000004 C22.694,1.75300000000004 28.194,7.096 28.194,7.096 C28.731,7.61800000000005 29,8.30100000000004 29,8.98500000000001 C29,9.66800000000001 28.731,9.35199999999998 28.194,9.87400000000002 Z "/><path fill="rgb( 255, 255, 255 )" d="M17.403,6.03099999999995 C17.403,6.03099999999995 17.403,12 17.403,12 C17.403,12 15.981,12 15.981,12 C15.981,12 15.981,6.03099999999995 15.981,6.03099999999995 C15.981,6.03099999999995 14.95,6.03099999999995 14.95,6.03099999999995 C14.95,6.03099999999995 14.95,4.96900000000005 14.95,4.96900000000005 C14.95,4.96900000000005 18.415,4.96900000000005 18.415,4.96900000000005 C18.415,4.96900000000005 18.415,6.03099999999995 18.415,6.03099999999995 C18.415,6.03099999999995 17.403,6.03099999999995 17.403,6.03099999999995 ZM12.256,4.96900000000005 C12.256,4.96900000000005 13.677,4.96900000000005 13.677,4.96900000000005 C13.677,4.96900000000005 13.677,12 13.677,12 C13.677,12 12.256,12 12.256,12 C12.256,12 12.256,4.96900000000005 12.256,4.96900000000005 ZM9.19,8.86300000000006 C9.19,8.86300000000006 8.17000000000002,8.86300000000006 8.17000000000002,8.86300000000006 C8.17000000000002,8.86300000000006 8.17000000000002,12 8.17000000000002,12 C8.17000000000002,12 6.74900000000002,12 6.74900000000002,12 C6.74900000000002,12 6.74900000000002,4.96900000000005 6.74900000000002,4.96900000000005 C6.74900000000002,4.96900000000005 8.17000000000002,4.96900000000005 8.17000000000002,4.96900000000005 C8.17000000000002,4.96900000000005 8.17000000000002,7.85199999999998 8.17000000000002,7.85199999999998 C8.17000000000002,7.85199999999998 9.19,7.85199999999998 9.19,7.85199999999998 C9.19,7.85199999999998 9.19,4.96900000000005 9.19,4.96900000000005 C9.19,4.96900000000005 10.62,4.96900000000005 10.62,4.96900000000005 C10.62,4.96900000000005 10.62,12 10.62,12 C10.62,12 9.19,12 9.19,12 C9.19,12 9.19,8.86300000000006 9.19,8.86300000000006 Z "/></svg>