<?xml version="1.0" encoding="utf-8"?><!DOCTYPE svg PUBLIC "-//W3C//DTD SVG 1.1//EN" "http://www.w3.org/Graphics/SVG/1.1/DTD/svg11.dtd"><svg version="1.1" baseProfile="full" xmlns="http://www.w3.org/2000/svg" xmlns:xlink="http://www.w3.org/1999/xlink" xmlns:ev="http://www.w3.org/2001/xml-events"   height="17px"   width="14px" ><path fill="rgb( 255, 255, 255 )" d="M13.544,9.81600000000003 C13.544,9.81600000000003 13.554,9.8309999999999 13.554,9.8309999999999 C13.554,9.8309999999999 7.55399999999997,13.8309999999999 7.55399999999997,13.8309999999999 C7.55399999999997,13.8309999999999 7.54399999999998,13.816 7.54399999999998,13.816 C7.38499999999999,13.923 7.20500000000004,13.999 7,13.999 C6.79399999999998,13.999 6.61400000000003,13.923 6.45500000000004,13.816 C6.45500000000004,13.816 6.44500000000005,13.8309999999999 6.44500000000005,13.8309999999999 C6.44500000000005,13.8309999999999 0.44500000000005,9.8309999999999 0.44500000000005,9.8309999999999 C0.44500000000005,9.8309999999999 0.45500000000004,9.81600000000003 0.45500000000004,9.81600000000003 C0.18700000000001,9.63599999999997 0,9.346 0,8.99900000000002 C0,8.44699999999989 0.447,7.99900000000002 1,7.99900000000002 C1.20500000000004,7.99900000000002 1.38499999999999,8.07600000000002 1.54399999999998,8.18299999999999 C1.54399999999998,8.18299999999999 1.55399999999997,8.16699999999992 1.55399999999997,8.16699999999992 C1.55399999999997,8.16699999999992 7,11.797 7,11.797 C7,11.797 12.4450000000001,8.16699999999992 12.4450000000001,8.16699999999992 C12.4450000000001,8.16699999999992 12.455,8.18299999999999 12.455,8.18299999999999 C12.614,8.07600000000002 12.794,7.99900000000002 13,7.99900000000002 C13.552,7.99900000000002 14,8.44699999999989 14,8.99900000000002 C14,9.346 13.812,9.63599999999997 13.544,9.81600000000003 ZM13.544,6.81600000000003 C13.544,6.81600000000003 13.554,6.8309999999999 13.554,6.8309999999999 C13.554,6.8309999999999 7.55399999999997,10.8309999999999 7.55399999999997,10.8309999999999 C7.55399999999997,10.8309999999999 7.54399999999998,10.816 7.54399999999998,10.816 C7.38499999999999,10.922 7.20500000000004,10.999 7,10.999 C6.79399999999998,10.999 6.61400000000003,10.922 6.45500000000004,10.816 C6.45500000000004,10.816 6.44500000000005,10.8309999999999 6.44500000000005,10.8309999999999 C6.44500000000005,10.8309999999999 0.44500000000005,6.8309999999999 0.44500000000005,6.8309999999999 C0.44500000000005,6.8309999999999 0.45500000000004,6.81600000000003 0.45500000000004,6.81600000000003 C0.18700000000001,6.63599999999997 0,6.346 0,5.99900000000002 C0,5.65300000000002 0.18700000000001,5.36200000000008 0.45500000000004,5.18299999999999 C0.45500000000004,5.18299999999999 0.44500000000005,5.16699999999992 0.44500000000005,5.16699999999992 C0.44500000000005,5.16699999999992 6.44500000000005,1.16699999999992 6.44500000000005,1.16699999999992 C6.44500000000005,1.16699999999992 6.45500000000004,1.18200000000002 6.45500000000004,1.18200000000002 C6.61400000000003,1.07600000000002 6.79399999999998,0.99900000000002 7,0.99900000000002 C7.20500000000004,0.99900000000002 7.38499999999999,1.07600000000002 7.54399999999998,1.18200000000002 C7.54399999999998,1.18200000000002 7.55399999999997,1.16699999999992 7.55399999999997,1.16699999999992 C7.55399999999997,1.16699999999992 13.554,5.16699999999992 13.554,5.16699999999992 C13.554,5.16699999999992 13.544,5.18299999999999 13.544,5.18299999999999 C13.812,5.36200000000008 14,5.65300000000002 14,5.99900000000002 C14,6.346 13.812,6.63599999999997 13.544,6.81600000000003 ZM7,3.20100000000002 C7,3.20100000000002 2.803,5.99900000000002 2.803,5.99900000000002 C2.803,5.99900000000002 7,8.79700000000003 7,8.79700000000003 C7,8.79700000000003 9.71000000000004,6.99099999999999 9.71000000000004,6.99099999999999 C9.71000000000004,6.99099999999999 11.197,5.99900000000002 11.197,5.99900000000002 C11.197,5.99900000000002 7,3.20100000000002 7,3.20100000000002 ZM1,10.999 C1.20500000000004,10.999 1.38499999999999,11.076 1.54399999999998,11.183 C1.54399999999998,11.183 1.55399999999997,11.1669999999999 1.55399999999997,11.1669999999999 C1.55399999999997,11.1669999999999 7,14.798 7,14.798 C7,14.798 12.4450000000001,11.1669999999999 12.4450000000001,11.1669999999999 C12.4450000000001,11.1669999999999 12.455,11.183 12.455,11.183 C12.614,11.076 12.794,10.999 13,10.999 C13.552,10.999 14,11.4469999999999 14,11.999 C14,12.346 13.812,12.636 13.544,12.816 C13.544,12.816 13.554,12.8309999999999 13.554,12.8309999999999 C13.554,12.8309999999999 7.55399999999997,16.8309999999999 7.55399999999997,16.8309999999999 C7.55399999999997,16.8309999999999 7.54399999999998,16.816 7.54399999999998,16.816 C7.38499999999999,16.922 7.20500000000004,16.999 7,16.999 C6.79399999999998,16.999 6.61400000000003,16.922 6.45500000000004,16.816 C6.45500000000004,16.816 6.44500000000005,16.8309999999999 6.44500000000005,16.8309999999999 C6.44500000000005,16.8309999999999 0.44500000000005,12.8309999999999 0.44500000000005,12.8309999999999 C0.44500000000005,12.8309999999999 0.45500000000004,12.816 0.45500000000004,12.816 C0.18700000000001,12.636 0,12.346 0,11.999 C0,11.4469999999999 0.447,10.999 1,10.999 Z "/></svg>