<?xml version="1.0" encoding="utf-8"?><!DOCTYPE svg PUBLIC "-//W3C//DTD SVG 1.1//EN" "http://www.w3.org/Graphics/SVG/1.1/DTD/svg11.dtd"><svg version="1.1" baseProfile="full" xmlns="http://www.w3.org/2000/svg" xmlns:xlink="http://www.w3.org/1999/xlink" xmlns:ev="http://www.w3.org/2001/xml-events"   height="4px"   width="6px" ><path fill="rgb( 31, 75, 165 )" d="M0.16899999999998,1.117 C0.16899999999998,1.117 0.17099999999999,1.116 0.17099999999999,1.116 C0.06599999999997,0.997 0,0.84 0,0.666 C0,0.298 0.28800000000001,0 0.64299999999997,0 C0.82999999999998,0 0.99799999999999,0.084 1.11500000000001,0.217 C1.11500000000001,0.217 1.11700000000002,0.216 1.11700000000002,0.216 C1.11700000000002,0.216 3,2.346 3,2.346 C3,2.346 4.88299999999998,0.216 4.88299999999998,0.216 C4.88299999999998,0.216 4.88499999999999,0.217 4.88499999999999,0.217 C5.00200000000001,0.084 5.17000000000002,0 5.35700000000003,0 C5.71199999999999,0 6,0.298 6,0.666 C6,0.84 5.93400000000003,0.997 5.82900000000001,1.116 C5.82900000000001,1.116 5.83100000000002,1.117 5.83100000000002,1.117 C5.83100000000002,1.117 3.47399999999999,3.784 3.47399999999999,3.784 C3.35199999999998,3.921 3.18000000000001,4 3,4 C2.81999999999999,4 2.64800000000002,3.921 2.52600000000001,3.784 C2.52600000000001,3.784 0.16899999999998,1.117 0.16899999999998,1.117 Z "/></svg>