<?xml version="1.0" encoding="utf-8"?><!DOCTYPE svg PUBLIC "-//W3C//DTD SVG 1.1//EN" "http://www.w3.org/Graphics/SVG/1.1/DTD/svg11.dtd"><svg version="1.1" baseProfile="full" xmlns="http://www.w3.org/2000/svg" xmlns:xlink="http://www.w3.org/1999/xlink" xmlns:ev="http://www.w3.org/2001/xml-events"   height="13px"   width="13px" ><path fill="rgb( 34, 34, 34 )" d="M1.5,0 C1.5,0 11.5,0 11.5,0 C12.328,0 13,0.671 13,1.5 C13,2.328 12.328,3 11.5,3 C11.5,3 1.5,3 1.5,3 C0.672,3 0,2.328 0,1.5 C0,0.671 0.672,0 1.5,0 ZM1.5,5 C1.5,5 11.5,5 11.5,5 C12.328,5 13,5.671 13,6.5 C13,7.328 12.328,8 11.5,8 C11.5,8 1.5,8 1.5,8 C0.672,8 0,7.328 0,6.5 C0,5.671 0.672,5 1.5,5 ZM1.5,10 C1.5,10 11.5,10 11.5,10 C12.328,10 13,10.671 13,11.5 C13,12.328 12.328,13 11.5,13 C11.5,13 1.5,13 1.5,13 C0.672,13 0,12.328 0,11.5 C0,10.671 0.672,10 1.5,10 Z "/></svg>