<?xml version="1.0" encoding="utf-8"?><!DOCTYPE svg PUBLIC "-//W3C//DTD SVG 1.1//EN" "http://www.w3.org/Graphics/SVG/1.1/DTD/svg11.dtd"><svg version="1.1" baseProfile="full" xmlns="http://www.w3.org/2000/svg" xmlns:xlink="http://www.w3.org/1999/xlink" xmlns:ev="http://www.w3.org/2001/xml-events"   height="17px"   width="16px" ><path fill="rgb( 207, 207, 207 )" d="M14,16.999 C14,16.999 2,16.999 2,16.999 C0.89499999999998,16.999 0,16.104 0,14.999 C0,14.999 0,5.99900000000002 0,5.99900000000002 C0,4.89499999999998 0.89499999999998,3.99900000000002 2,3.99900000000002 C2,3.99900000000002 4,3.99900000000002 4,3.99900000000002 C4,3.99900000000002 4,2.99900000000002 4,2.99900000000002 C4,1.89499999999998 4.89499999999998,0.99900000000002 6,0.99900000000002 C6,0.99900000000002 10,0.99900000000002 10,0.99900000000002 C11.104,0.99900000000002 12,1.89499999999998 12,2.99900000000002 C12,2.99900000000002 12,3.99900000000002 12,3.99900000000002 C12,3.99900000000002 14,3.99900000000002 14,3.99900000000002 C15.104,3.99900000000002 16,4.89499999999998 16,5.99900000000002 C16,5.99900000000002 16,14.999 16,14.999 C16,16.104 15.104,16.999 14,16.999 ZM9.5,2.99900000000002 C9.5,2.99900000000002 6.5,2.99900000000002 6.5,2.99900000000002 C6.22400000000005,2.99900000000002 6,3.22299999999996 6,3.49900000000002 C6,3.77500000000009 6.22400000000005,3.99900000000002 6.5,3.99900000000002 C6.5,3.99900000000002 9.5,3.99900000000002 9.5,3.99900000000002 C9.77599999999995,3.99900000000002 10,3.77500000000009 10,3.49900000000002 C10,3.22299999999996 9.77599999999995,2.99900000000002 9.5,2.99900000000002 ZM13,5.99900000000002 C13,5.99900000000002 3,5.99900000000002 3,5.99900000000002 C2.447,5.99900000000002 2,6.44699999999989 2,6.99900000000002 C2,7.55199999999991 2.447,7.99900000000002 3,7.99900000000002 C3,7.99900000000002 13,7.99900000000002 13,7.99900000000002 C13.552,7.99900000000002 14,7.55199999999991 14,6.99900000000002 C14,6.44699999999989 13.552,5.99900000000002 13,5.99900000000002 ZM14,10.999 C14,10.4469999999999 13.552,9.99900000000002 13,9.99900000000002 C13,9.99900000000002 12,9.99900000000002 12,9.99900000000002 C12,9.99900000000002 12,10.999 12,10.999 C12,11.5509999999999 11.552,11.999 11,11.999 C10.447,11.999 10,11.5509999999999 10,10.999 C10,10.999 10,9.99900000000002 10,9.99900000000002 C10,9.99900000000002 6,9.99900000000002 6,9.99900000000002 C6,9.99900000000002 6,10.999 6,10.999 C6,11.5509999999999 5.55200000000002,11.999 5,11.999 C4.447,11.999 4,11.5509999999999 4,10.999 C4,10.999 4,9.99900000000002 4,9.99900000000002 C4,9.99900000000002 3,9.99900000000002 3,9.99900000000002 C2.447,9.99900000000002 2,10.4469999999999 2,10.999 C2,10.999 2,13.999 2,13.999 C2,14.5519999999999 2.447,14.999 3,14.999 C3,14.999 13,14.999 13,14.999 C13.552,14.999 14,14.5519999999999 14,13.999 C14,13.999 14,10.999 14,10.999 Z "/></svg>