<?xml version="1.0" encoding="utf-8"?><!DOCTYPE svg PUBLIC "-//W3C//DTD SVG 1.1//EN" "http://www.w3.org/Graphics/SVG/1.1/DTD/svg11.dtd"><svg version="1.1" baseProfile="full" xmlns="http://www.w3.org/2000/svg" xmlns:xlink="http://www.w3.org/1999/xlink" xmlns:ev="http://www.w3.org/2001/xml-events"   height="17px"   width="29px" ><path fill="rgb( 104, 191, 123 )" d="M28.194,9.87400000000002 C28.194,9.87400000000002 22.694,15.2170000000001 22.694,15.2170000000001 C21.97,15.9200000000001 20.912,16.162 19.946,15.875 C19.6420000000001,15.9490000000001 19.328,16 19,16 C19,16 4,16 4,16 C1.791,16 0,14.2090000000001 0,12 C0,12 0,5 0,5 C0,2.79099999999994 1.791,1 4,1 C4,1 19,1 19,1 C19.3099999999999,1 19.609,1.04299999999989 19.899,1.1099999999999 C20.877,0.80099999999993 21.958,1.03999999999996 22.694,1.75299999999993 C22.694,1.75299999999993 28.194,7.096 28.194,7.096 C28.731,7.61799999999994 29,8.30099999999993 29,8.9849999999999 C29,9.66799999999989 28.731,9.35200000000009 28.194,9.87400000000002 Z "/><path fill="rgb( 255, 255, 255 )" d="M19.005,12 C19.005,12 17.79,12 17.79,12 C17.79,12 17.2,7.39799999999991 17.2,7.39799999999991 C17.2,7.39799999999991 16.622,12 16.622,12 C16.622,12 15.407,12 15.407,12 C15.407,12 14.434,4.96900000000005 14.434,4.96900000000005 C14.434,4.96900000000005 15.645,4.96900000000005 15.645,4.96900000000005 C15.645,4.96900000000005 16.083,9.625 16.083,9.625 C16.083,9.625 16.684,4.96900000000005 16.684,4.96900000000005 C16.684,4.96900000000005 17.727,4.96900000000005 17.727,4.96900000000005 C17.727,4.96900000000005 18.317,9.59799999999996 18.317,9.59799999999996 C18.317,9.59799999999996 18.774,4.96900000000005 18.774,4.96900000000005 C18.774,4.96900000000005 19.989,4.96900000000005 19.989,4.96900000000005 C19.989,4.96900000000005 19.005,12 19.005,12 ZM10.529,4.96900000000005 C10.529,4.96900000000005 13.463,4.96900000000005 13.463,4.96900000000005 C13.463,4.96900000000005 13.463,5.94499999999994 13.463,5.94499999999994 C13.463,5.94499999999994 11.951,5.94499999999994 11.951,5.94499999999994 C11.951,5.94499999999994 11.951,7.85899999999992 11.951,7.85899999999992 C11.951,7.85899999999992 13.021,7.85899999999992 13.021,7.85899999999992 C13.021,7.85899999999992 13.021,8.85899999999992 13.021,8.85899999999992 C13.021,8.85899999999992 11.951,8.85899999999992 11.951,8.85899999999992 C11.951,8.85899999999992 11.951,11.0229999999999 11.951,11.0229999999999 C11.951,11.0229999999999 13.463,11.0229999999999 13.463,11.0229999999999 C13.463,11.0229999999999 13.463,12 13.463,12 C13.463,12 10.529,12 10.529,12 C10.529,12 10.529,4.96900000000005 10.529,4.96900000000005 ZM6.37,8.09799999999996 C6.37,8.09799999999996 6.37,12 6.37,12 C6.37,12 5.14700000000005,12 5.14700000000005,12 C5.14700000000005,12 5.14700000000005,4.96499999999992 5.14700000000005,4.96499999999992 C5.14700000000005,4.96499999999992 6.16999999999996,4.96499999999992 6.16999999999996,4.96499999999992 C6.16999999999996,4.96499999999992 7.71299999999997,8.64400000000001 7.71299999999997,8.64400000000001 C7.71299999999997,8.64400000000001 7.71299999999997,4.96499999999992 7.71299999999997,4.96499999999992 C7.71299999999997,4.96499999999992 8.89300000000003,4.96499999999992 8.89300000000003,4.96499999999992 C8.89300000000003,4.96499999999992 8.89300000000003,12 8.89300000000003,12 C8.89300000000003,12 7.90899999999999,12 7.90899999999999,12 C7.90899999999999,12 6.37,8.09799999999996 6.37,8.09799999999996 Z "/></svg>