<?xml version="1.0" encoding="utf-8"?><!DOCTYPE svg PUBLIC "-//W3C//DTD SVG 1.1//EN" "http://www.w3.org/Graphics/SVG/1.1/DTD/svg11.dtd"><svg version="1.1" baseProfile="full" xmlns="http://www.w3.org/2000/svg" xmlns:xlink="http://www.w3.org/1999/xlink" xmlns:ev="http://www.w3.org/2001/xml-events"   height="14px"   width="16px" ><defs><filter id="Filter_0">  <feFlood flood-color="rgb( 255, 255, 255 )" flood-opacity="1" result="floodOut" />  <feComposite operator="atop" in="floodOut" in2="SourceGraphic" result="compOut" />  <feBlend mode="normal" in="compOut" in2="SourceGraphic" /></filter></defs><g filter="url(#Filter_0)"><path opacity="0.302" fill="rgb( 213, 213, 213 )" d="M14,14 C14,14 2,14 2,14 C0.89499999999998,14 0,13.105 0,12 C0,12 0,2 0,2 C0,0.89499999999998 0.89499999999998,0 2,0 C2,0 14,0 14,0 C15.105,0 16,0.89499999999998 16,2 C16,2 16,12 16,12 C16,13.105 15.105,14 14,14 ZM3,12 C3,12 13,12 13,12 C13.552,12 14,11.5520000000001 14,11 C14,11 14,3.38200000000006 14,3.38200000000006 C14,3.38200000000006 8.67200000000003,8.71099999999979 8.67200000000003,8.71099999999979 C8.48399999999998,8.89800000000014 8.23099999999999,9.00399999999991 7.96499999999997,9.00399999999991 C7.69900000000001,9.00399999999991 7.44499999999999,8.89800000000014 7.25799999999998,8.71099999999979 C7.25799999999998,8.71099999999979 2,3.39699999999993 2,3.39699999999993 C2,3.39699999999993 2,11 2,11 C2,11.5520000000001 2.44799999999998,12 3,12 ZM12.555,2 C12.555,2 3.42899999999997,2 3.42899999999997,2 C3.42899999999997,2 7.96499999999997,6.59000000000015 7.96499999999997,6.59000000000015 C7.96499999999997,6.59000000000015 12.555,2 12.555,2 Z "/></g></svg>