<?xml version="1.0" encoding="utf-8"?><!DOCTYPE svg PUBLIC "-//W3C//DTD SVG 1.1//EN" "http://www.w3.org/Graphics/SVG/1.1/DTD/svg11.dtd"><svg version="1.1" baseProfile="full" xmlns="http://www.w3.org/2000/svg" xmlns:xlink="http://www.w3.org/1999/xlink" xmlns:ev="http://www.w3.org/2001/xml-events"   height="16px"   width="16px" ><path fill="rgb( 213, 213, 213 )" d="M14,15.999 C14,15.999 5,15.999 5,15.999 C5,15.999 5,15.999 5,15.999 C5,15.999 2,15.999 2,15.999 C0.895,15.999 0,15.104 0,13.999 C0,13.999 0,5.99900000000002 0,5.99900000000002 C0,4.89499999999998 0.895,3.99900000000002 2,3.99900000000002 C2,3.99900000000002 3,3.99900000000002 3,3.99900000000002 C3,3.99900000000002 3,1.99900000000002 3,1.99900000000002 C3,0.89499999999998 3.895,0 5,0 C5,0 14,0 14,0 C15.105,0 16,0.89499999999998 16,1.99900000000002 C16,1.99900000000002 16,13.999 16,13.999 C16,15.104 15.105,15.999 14,15.999 ZM14,2.99900000000002 C14,2.44699999999989 13.552,1.99900000000002 13,1.99900000000002 C13,1.99900000000002 6,1.99900000000002 6,1.99900000000002 C5.44799999999999,1.99900000000002 5,2.44699999999989 5,2.99900000000002 C5,2.99900000000002 5,11.999 5,11.999 C5,12.5519999999999 4.55200000000001,12.999 4,12.999 C3.44799999999999,12.999 3,12.5519999999999 3,11.999 C3,11.999 3,5.99900000000002 3,5.99900000000002 C3,5.99900000000002 3,5.99900000000002 3,5.99900000000002 C2.44799999999999,5.99900000000002 2,6.44699999999989 2,6.99900000000002 C2,6.99900000000002 2,12.999 2,12.999 C2,13.5509999999999 2.44799999999999,13.999 3,13.999 C3,13.999 3,13.999 3,13.999 C3,13.999 3,13.999 3,13.999 C3,13.999 6,13.999 6,13.999 C6,13.999 6,13.999 6,13.999 C6,13.999 13,13.999 13,13.999 C13.552,13.999 14,13.5509999999999 14,12.999 C14,12.999 14,2.99900000000002 14,2.99900000000002 ZM7,9.99900000000002 C7,9.99900000000002 12,9.99900000000002 12,9.99900000000002 C12,9.99900000000002 12,11.999 12,11.999 C12,11.999 7,11.999 7,11.999 C7,11.999 7,9.99900000000002 7,9.99900000000002 ZM7,6.99900000000002 C7,6.99900000000002 12,6.99900000000002 12,6.99900000000002 C12,6.99900000000002 12,8.99900000000002 12,8.99900000000002 C12,8.99900000000002 7,8.99900000000002 7,8.99900000000002 C7,8.99900000000002 7,6.99900000000002 7,6.99900000000002 ZM7,3.99900000000002 C7,3.99900000000002 12,3.99900000000002 12,3.99900000000002 C12,3.99900000000002 12,5.99900000000002 12,5.99900000000002 C12,5.99900000000002 7,5.99900000000002 7,5.99900000000002 C7,5.99900000000002 7,3.99900000000002 7,3.99900000000002 Z "/></svg>