<?xml version="1.0" encoding="utf-8"?><!DOCTYPE svg PUBLIC "-//W3C//DTD SVG 1.1//EN" "http://www.w3.org/Graphics/SVG/1.1/DTD/svg11.dtd"><svg version="1.1" baseProfile="full" xmlns="http://www.w3.org/2000/svg" xmlns:xlink="http://www.w3.org/1999/xlink" xmlns:ev="http://www.w3.org/2001/xml-events"   height="10px"   width="12px" ><path fill="rgb( 255, 255, 255 )" d="M10.997,4.98399999999992 C10.997,4.98900000000003 11,4.99400000000014 11,5 C11,5.33599999999979 10.823,5.61900000000014 10.568,5.80099999999993 C10.568,5.80099999999993 7.68700000000001,8.69399999999996 7.68700000000001,8.69399999999996 C7.29600000000005,9.08599999999979 6.66300000000001,9.08599999999979 6.27300000000002,8.69399999999996 C5.88199999999995,8.30299999999988 5.88199999999995,7.66899999999987 6.27300000000002,7.27799999999979 C6.27300000000002,7.27799999999979 7.54399999999998,6 7.54399999999998,6 C7.54399999999998,6 1,6 1,6 C0.44799999999998,6 0,5.55200000000013 0,5 C0,4.44700000000012 0.44799999999998,4 1,4 C1,4 7.62,4 7.62,4 C7.62,4 6.28099999999995,2.69000000000005 6.28099999999995,2.69000000000005 C5.88999999999999,2.29899999999998 5.88999999999999,1.66499999999996 6.28099999999995,1.27399999999989 C6.67200000000003,0.88200000000006 7.30499999999995,0.88200000000006 7.69500000000005,1.27399999999989 C7.69500000000005,1.27399999999989 10.711,4.23999999999978 10.711,4.23999999999978 C10.898,4.42799999999988 11.004,4.68299999999999 11.004,4.94900000000007 C11.004,4.96099999999979 10.997,4.97200000000021 10.997,4.98399999999992 Z "/></svg>