<?xml version="1.0" encoding="utf-8"?><!DOCTYPE svg PUBLIC "-//W3C//DTD SVG 1.1//EN" "http://www.w3.org/Graphics/SVG/1.1/DTD/svg11.dtd"><svg version="1.1" baseProfile="full" xmlns="http://www.w3.org/2000/svg" xmlns:xlink="http://www.w3.org/1999/xlink" xmlns:ev="http://www.w3.org/2001/xml-events"   height="17px"   width="34px" ><path fill="rgb( 255, 63, 43 )" d="M33.194,9.87400000000002 C33.194,9.87400000000002 27.694,15.217 27.694,15.217 C26.97,15.92 25.912,16.162 24.946,15.875 C24.6420000000001,15.949 24.328,16 24,16 C24,16 4,16 4,16 C1.79100000000005,16 0,14.2089999999999 0,12 C0,12 0,5 0,5 C0,2.79100000000005 1.79100000000005,1 4,1 C4,1 24,1 24,1 C24.3099999999999,1 24.609,1.04300000000001 24.899,1.11000000000001 C25.877,0.80100000000004 26.958,1.03999999999996 27.694,1.75300000000004 C27.694,1.75300000000004 33.194,7.096 33.194,7.096 C33.731,7.61800000000005 34,8.30100000000004 34,8.98500000000001 C34,9.66800000000001 33.731,9.35199999999998 33.194,9.87400000000002 Z "/><path fill="rgb( 255, 255, 255 )" d="M23.106,11.023 C23.106,11.023 23.106,12 23.106,12 C23.106,12 20.172,12 20.172,12 C20.172,12 20.172,4.96900000000005 20.172,4.96900000000005 C20.172,4.96900000000005 23.106,4.96900000000005 23.106,4.96900000000005 C23.106,4.96900000000005 23.106,5.94500000000005 23.106,5.94500000000005 C23.106,5.94500000000005 21.5940000000001,5.94500000000005 21.5940000000001,5.94500000000005 C21.5940000000001,5.94500000000005 21.5940000000001,7.85900000000004 21.5940000000001,7.85900000000004 C21.5940000000001,7.85900000000004 22.665,7.85900000000004 22.665,7.85900000000004 C22.665,7.85900000000004 22.665,8.85900000000004 22.665,8.85900000000004 C22.665,8.85900000000004 21.5940000000001,8.85900000000004 21.5940000000001,8.85900000000004 C21.5940000000001,8.85900000000004 21.5940000000001,11.023 21.5940000000001,11.023 C21.5940000000001,11.023 23.106,11.023 23.106,11.023 ZM16.099,4.96900000000005 C16.099,4.96900000000005 17.521,4.96900000000005 17.521,4.96900000000005 C17.521,4.96900000000005 17.521,11.023 17.521,11.023 C17.521,11.023 18.919,11.023 18.919,11.023 C18.919,11.023 18.919,12 18.919,12 C18.919,12 16.099,12 16.099,12 C16.099,12 16.099,4.96900000000005 16.099,4.96900000000005 ZM13.155,10.496 C13.155,10.496 12.237,10.496 12.237,10.496 C12.237,10.496 11.963,12 11.963,12 C11.963,12 10.553,12 10.553,12 C10.553,12 12.072,4.96900000000005 12.072,4.96900000000005 C12.072,4.96900000000005 13.33,4.96900000000005 13.33,4.96900000000005 C13.33,4.96900000000005 14.846,12 14.846,12 C14.846,12 13.444,12 13.444,12 C13.444,12 13.155,10.496 13.155,10.496 ZM12.705,7.01199999999994 C12.705,7.01199999999994 12.3339999999999,9.62099999999998 12.3339999999999,9.62099999999998 C12.3339999999999,9.62099999999998 13.061,9.62099999999998 13.061,9.62099999999998 C13.061,9.62099999999998 12.705,7.01199999999994 12.705,7.01199999999994 ZM7.45799999999997,7.29899999999998 C7.54999999999995,7.40999999999997 7.63599999999997,7.50099999999998 7.71400000000006,7.57399999999996 C7.79200000000003,7.64700000000005 7.89599999999996,7.73599999999999 8.02599999999995,7.84199999999998 C8.15700000000004,7.947 8.24900000000002,8.02499999999998 8.30399999999997,8.07399999999996 C8.50400000000002,8.25099999999998 8.673,8.41700000000003 8.81200000000001,8.572 C8.95000000000005,8.72699999999998 9.08000000000004,8.90200000000004 9.202,9.09799999999996 C9.32500000000005,9.29300000000001 9.41600000000005,9.50400000000002 9.47799999999995,9.73099999999999 C9.53899999999999,9.95699999999999 9.56899999999996,10.202 9.56899999999996,10.465 C9.56899999999996,10.957 9.39400000000001,11.36 9.04200000000003,11.674 C8.69000000000005,11.9880000000001 8.26300000000003,12.145 7.76099999999997,12.145 C7.43499999999995,12.145 7.14599999999996,12.085 6.89400000000001,11.965 C6.64099999999996,11.845 6.43700000000001,11.682 6.28200000000004,11.477 C6.12699999999995,11.271 6.00800000000004,11.043 5.92499999999995,10.793 C5.84100000000001,10.543 5.79300000000001,10.275 5.77999999999997,9.98800000000006 C5.77999999999997,9.98800000000006 7.22199999999998,9.71100000000001 7.22199999999998,9.71100000000001 C7.22199999999998,9.85400000000004 7.22400000000005,9.98000000000002 7.23000000000002,10.09 C7.23500000000001,10.199 7.24800000000005,10.318 7.27099999999996,10.447 C7.29300000000001,10.576 7.32299999999998,10.682 7.36000000000001,10.764 C7.39800000000002,10.846 7.45100000000002,10.915 7.52099999999996,10.971 C7.58900000000006,11.027 7.67100000000005,11.0549999999999 7.76499999999999,11.0549999999999 C8.04600000000005,11.0549999999999 8.18700000000001,10.875 8.18700000000001,10.516 C8.18700000000001,10.023 7.90899999999999,9.53399999999999 7.35400000000004,9.04700000000003 C7.35400000000004,9.04700000000003 6.91300000000001,8.67200000000003 6.91300000000001,8.67200000000003 C6.77200000000005,8.55499999999995 6.65999999999997,8.45699999999999 6.577,8.37900000000002 C6.49400000000003,8.30100000000004 6.39599999999996,8.19500000000005 6.28200000000004,8.06299999999999 C6.16899999999998,7.92999999999995 6.08000000000004,7.80100000000004 6.01700000000005,7.678 C5.95299999999997,7.55399999999997 5.89800000000002,7.40499999999997 5.85299999999995,7.23099999999999 C5.80700000000002,7.05600000000004 5.78399999999999,6.87099999999998 5.78399999999999,6.67600000000004 C5.78399999999999,6.10500000000002 5.96500000000003,5.654 6.327,5.322 C6.68899999999996,4.99000000000001 7.16999999999996,4.82399999999996 7.76900000000001,4.82399999999996 C8.26599999999996,4.82399999999996 8.68899999999996,5.00099999999998 9.03800000000001,5.35599999999999 C9.38699999999994,5.71000000000004 9.56200000000001,6.13699999999994 9.56200000000001,6.63699999999994 C9.56200000000001,6.63699999999994 9.55799999999999,6.68799999999999 9.55799999999999,6.68799999999999 C9.55799999999999,6.721 9.55799999999999,6.75999999999999 9.55799999999999,6.80499999999995 C9.55799999999999,6.80499999999995 8.08900000000006,7.00800000000004 8.08900000000006,7.00800000000004 C8.08900000000006,6.97900000000004 8.09100000000001,6.93399999999997 8.09500000000003,6.87300000000005 C8.09900000000005,6.81200000000001 8.101,6.76199999999994 8.101,6.72299999999996 C8.101,6.62900000000002 8.09400000000005,6.53899999999999 8.08100000000002,6.45299999999997 C8.06799999999998,6.36699999999996 8.04600000000005,6.28099999999995 8.01700000000005,6.19500000000005 C7.98699999999997,6.10900000000004 7.94000000000005,6.04100000000005 7.87800000000004,5.99000000000001 C7.81500000000005,5.93899999999996 7.74000000000001,5.91399999999999 7.65099999999995,5.91399999999999 C7.495,5.91399999999999 7.37800000000004,5.97500000000002 7.29999999999995,6.09799999999996 C7.22199999999998,6.22000000000003 7.18299999999999,6.36500000000001 7.18299999999999,6.53099999999995 C7.18299999999999,6.67700000000002 7.20500000000004,6.81399999999996 7.25099999999998,6.94100000000003 C7.29700000000003,7.06899999999996 7.36599999999999,7.18799999999999 7.45799999999997,7.29899999999998 Z "/></svg>